<svg width="98" height="86" viewBox="0 0 98 86" fill="none" xmlns="http://www.w3.org/2000/svg">
<path d="M93.1766 43.3176L87.4707 46.1086L85.8163 52.245C85.5764 53.1409 84.9686 53.4965 84.3192 53.2378C84.1072 53.1612 83.8864 53.0095 83.6886 52.7942L79.2332 48.2124L72.8734 48.5023C72.5807 48.5164 72.3216 48.4707 72.1096 48.3941C71.4602 48.1354 71.2489 47.4599 71.6864 46.6474L74.6397 41.0283L72.3614 35.0643C71.9229 33.9233 72.5482 33.1546 73.755 33.3631L80.0444 34.4617L84.9921 30.486C85.4651 30.1057 85.9347 29.9998 86.3125 30.1483C86.6796 30.2929 86.9548 30.692 87.0465 31.3003L87.9689 37.6011L93.3138 41.1144C94.3415 41.7853 94.2847 42.7714 93.1872 43.3214L93.1766 43.3176Z" stroke="#E5C726" stroke-width="1.5" stroke-linecap="round" stroke-linejoin="round"/>
<path d="M76.1633 33.9939C75.3314 34.4721 74.3297 35.7518 73.8231 36.6232" stroke="#E5C726" stroke-width="0.5" stroke-linecap="round" stroke-linejoin="round"/>
<path d="M77.6325 34.4049C76.3616 34.9042 75.3162 36.9349 74.5789 38.0465" stroke="#E5C726" stroke-width="0.5" stroke-linecap="round" stroke-linejoin="round"/>
<path d="M79.391 34.3455C78.292 35.0987 77.6083 36.4932 76.8151 37.5606C76.3244 38.2221 74.9194 39.5238 74.9401 40.2622" stroke="#E5C726" stroke-width="0.5" stroke-linecap="round" stroke-linejoin="round"/>
<path d="M81.2564 34.3245C79.7269 35.0419 78.593 37.6159 77.5027 38.8755C76.7063 39.786 75.531 40.883 75.2118 42.0978" stroke="#E5C726" stroke-width="0.5" stroke-linecap="round" stroke-linejoin="round"/>
<path d="M85.5756 31.9551C82.8848 35.4882 79.7407 38.6178 76.9419 42.052C75.3196 44.054 73.8763 46.4563 72.2577 48.3158" stroke="#E5C726" stroke-width="0.5" stroke-linecap="round" stroke-linejoin="round"/>
<path d="M86.5952 33.9413C85.212 34.6517 84.0785 36.9262 83.1257 38.1037C81.6399 39.9274 80.0489 41.6771 78.6084 43.5411C77.4627 45.0203 76.2834 46.5593 75.1569 47.9856" stroke="#E5C726" stroke-width="0.5" stroke-linecap="round" stroke-linejoin="round"/>
<path d="M86.5437 36.0077C86.5329 36.8665 85.0282 38.4437 84.4675 39.1997C83.2134 40.8794 81.8754 42.4929 80.5933 44.1505C80.0037 44.92 79.4361 45.6616 78.9448 46.4906C78.6991 46.9051 78.1497 48.0606 78.0935 47.8845" stroke="#E5C726" stroke-width="0.5" stroke-linecap="round" stroke-linejoin="round"/>
<path d="M87.8758 37.7592C86.2617 40.0039 84.6633 42.3381 82.9933 44.5385C82.0129 45.8259 81.3159 47.3235 80.3825 48.5799" stroke="#E5C726" stroke-width="0.5" stroke-linecap="round" stroke-linejoin="round"/>
<path d="M89.3189 39.2033C87.5995 41.2421 86.1368 43.5655 84.4445 45.662C83.315 47.0632 82.0238 48.5139 81.4072 50.2202" stroke="#E5C726" stroke-width="0.5" stroke-linecap="round" stroke-linejoin="round"/>
<path d="M90.5566 40.5854C90.4524 40.4758 83.5401 50.0205 82.3946 51.6317" stroke="#E5C726" stroke-width="0.5" stroke-linecap="round" stroke-linejoin="round"/>
<path d="M92.0935 41.1407C91.1384 42.1257 90.3369 43.3818 89.4966 44.4801" stroke="#E5C726" stroke-width="0.5" stroke-linecap="round" stroke-linejoin="round"/>
<path d="M86.1386 49.6295C85.2734 50.2994 84.6236 51.3348 83.9427 52.1911" stroke="#E5C726" stroke-width="0.5" stroke-linecap="round" stroke-linejoin="round"/>
<path d="M82.6991 17.2099L76.9932 20.0009L75.3387 26.1374C75.0989 27.0333 74.4911 27.3888 73.8416 27.1301C73.6296 27.0535 73.4089 26.9018 73.211 26.6866L68.7556 22.1047L62.3958 22.3946C62.1031 22.4087 61.8441 22.363 61.6321 22.2864C60.9826 22.0277 60.7714 21.3522 61.2088 20.5397L64.1622 14.9206L61.8838 8.95662C61.4454 7.81559 62.0707 7.04697 63.2775 7.25543L69.5669 8.35401L74.5146 4.37832C74.9876 3.99802 75.4572 3.89214 75.8349 4.04063C76.202 4.18528 76.4772 4.58431 76.569 5.19263L77.4914 11.4934L82.8362 15.0067C83.8639 15.6777 83.8072 16.6637 82.7097 17.2137L82.6991 17.2099Z" stroke="#E5C726" stroke-width="1.5" stroke-linecap="round" stroke-linejoin="round"/>
<path d="M65.6857 7.8862C64.8539 8.36445 63.8522 9.6441 63.3455 10.5155" stroke="#E5C726" stroke-width="0.5" stroke-linecap="round" stroke-linejoin="round"/>
<path d="M67.155 8.2972C65.8841 8.79654 64.8386 10.8273 64.1014 11.9389" stroke="#E5C726" stroke-width="0.5" stroke-linecap="round" stroke-linejoin="round"/>
<path d="M68.9135 8.23781C67.8145 8.991 67.1307 10.3856 66.3376 11.453C65.8469 12.1144 64.4418 13.4161 64.4626 14.1545" stroke="#E5C726" stroke-width="0.5" stroke-linecap="round" stroke-linejoin="round"/>
<path d="M70.7788 8.21682C69.2494 8.93427 68.1155 11.5082 67.0252 12.7678C66.2288 13.6783 65.0535 14.7754 64.7343 15.9901" stroke="#E5C726" stroke-width="0.5" stroke-linecap="round" stroke-linejoin="round"/>
<path d="M75.0981 5.84741C72.4073 9.38053 69.2631 12.5102 66.4643 15.9443C64.8421 17.9464 63.3988 20.3486 61.7801 22.2081" stroke="#E5C726" stroke-width="0.5" stroke-linecap="round" stroke-linejoin="round"/>
<path d="M76.1176 7.83364C74.7345 8.54406 73.601 10.8186 72.6482 11.9961C71.1623 13.8197 69.5714 15.5694 68.1309 17.4334C66.9852 18.9127 65.8059 20.4517 64.6793 21.8779" stroke="#E5C726" stroke-width="0.5" stroke-linecap="round" stroke-linejoin="round"/>
<path d="M76.0662 9.9C76.0553 10.7589 74.5507 12.3361 73.9899 13.092C72.7358 14.7718 71.3978 16.3852 70.1158 18.0428C69.5261 18.8124 68.9586 19.5539 68.4673 20.3829C68.2216 20.7974 67.6722 21.9529 67.616 21.7768" stroke="#E5C726" stroke-width="0.5" stroke-linecap="round" stroke-linejoin="round"/>
<path d="M77.3982 11.6516C75.7842 13.8962 74.1858 16.2304 72.5158 18.4309C71.5353 19.7182 70.8383 21.2158 69.905 22.4722" stroke="#E5C726" stroke-width="0.5" stroke-linecap="round" stroke-linejoin="round"/>
<path d="M78.8413 13.0957C77.122 15.1345 75.6592 17.4578 73.9669 19.5543C72.8374 20.9555 71.5463 22.4062 70.9296 24.1126" stroke="#E5C726" stroke-width="0.5" stroke-linecap="round" stroke-linejoin="round"/>
<path d="M80.0791 14.4777C79.9749 14.3682 73.0625 23.9129 71.9171 25.524" stroke="#E5C726" stroke-width="0.5" stroke-linecap="round" stroke-linejoin="round"/>
<path d="M81.6159 15.033C80.6608 16.018 79.8594 17.2741 79.0191 18.3725" stroke="#E5C726" stroke-width="0.5" stroke-linecap="round" stroke-linejoin="round"/>
<path d="M75.6611 23.5218C74.7958 24.1918 74.1461 25.2271 73.4651 26.0835" stroke="#E5C726" stroke-width="0.5" stroke-linecap="round" stroke-linejoin="round"/>
<path d="M18.9345 51.8229C19.4538 48.1185 22.0663 44.4723 24.5942 41.7759C28.2723 37.8501 33.3802 35.9443 38.6818 35.4769C47.178 34.7309 57.0579 37.8178 61.6878 45.3571C63.4494 48.226 64.5606 51.5294 64.7473 54.897C64.8446 56.5779 64.7197 58.359 64.4829 60.0484C64.2879 61.4393 64.1745 63.4849 63.3776 64.6184" stroke="#E5C726" stroke-width="1.5" stroke-linecap="round" stroke-linejoin="round"/>
<path d="M22.1844 44.6686C19.2937 44.2634 17.3127 44.6913 15.9775 45.7563C14.1907 47.173 14.4987 48.5375 15.5675 50.3131C17.9052 54.2174 22.7664 55.902 26.9065 57.4371C32.0296 59.3313 37.1212 61.1035 42.2868 62.5956C44.926 63.3599 47.6199 63.8828 50.3053 64.5152C52.634 65.07 54.9965 65.8785 57.401 66.0911C60.1007 66.3243 63.3203 66.9555 65.9393 66.1327C67.3317 65.6984 68.5379 65.0097 68.3109 63.4628C68.0561 61.7184 66.2648 60.2981 64.6947 59.4277" stroke="#E5C726" stroke-width="1.5" stroke-linecap="round" stroke-linejoin="round"/>
<path d="M23.7771 42.0141C22.362 41.373 18.7223 40.8696 16.7061 40.9052C14.0081 40.9559 12.0974 41.1792 9.41511 41.6126C4.68842 42.382 2.67758 46.1886 4.80778 50.5343C7.86624 56.7672 15.8446 59.5667 21.7204 62.4728C28.8938 66.0173 36.4947 67.9476 44.1542 70.0037C47.8566 71.0001 51.7652 71.7625 55.575 72.2896C58.7726 72.731 61.8553 73.6958 65.092 73.859C68.8182 74.0424 76.5585 73.5433 77.883 69.1908C80.1847 61.627 71.42 57.6103 65.7038 55.4946" stroke="#E5C726" stroke-width="1.5" stroke-linecap="round" stroke-linejoin="round"/>
<path d="M18.6069 61.5797C19.2653 67.4208 22.183 72.036 26.6892 75.8569C31.617 80.0344 38.3708 80.9327 44.6141 80.3275C49.4437 79.8631 57.0242 77.5844 59.3066 72.9788" stroke="#E5C726" stroke-width="1.5" stroke-linecap="round" stroke-linejoin="round"/>
<path d="M32.4623 39.1777C31.4565 39.3272 30.365 40.039 29.545 40.595C28.2423 41.4778 27.0831 42.6228 26.0006 43.7647C25.3664 44.4298 21.6937 48.8613 23.7171 49.6154C24.3569 49.8504 25.0345 49.0737 25.4947 48.7093C26.3222 48.0505 27.0804 47.292 27.8407 46.5685C29.3535 45.1271 30.9433 43.7796 32.4231 42.3268C32.8889 41.8732 33.4446 41.2732 33.5971 40.6304C33.7189 40.1079 33.4231 39.2501 32.7559 39.2603" stroke="#E5C726" stroke-width="0.5" stroke-linecap="round" stroke-linejoin="round"/>
<path d="M37.1109 37.5811C35.6877 37.1463 34.2325 40.007 35.8051 40.0684C37.0261 40.115 39.2253 37.9328 37.0928 37.71" stroke="#E5C726" stroke-width="0.5" stroke-linecap="round" stroke-linejoin="round"/>
<path d="M42.5747 60.097C44.9707 61.0625 47.397 61.7623 49.9239 62.338C51.5169 62.6996 53.1321 63.0506 54.7212 63.4394C56.0081 63.7582 57.3526 63.8636 58.6549 64.1223C60.031 64.3982 61.4457 64.5965 62.8355 64.5769" stroke="#E5C726" stroke-width="0.5" stroke-linecap="round" stroke-linejoin="round"/>
<path d="M48.0713 59.8715C50.5444 60.6332 53.1118 61.1177 55.6505 61.7088C58.3427 62.3422 61.0781 62.8156 63.8191 63.1998" stroke="#E5C726" stroke-width="0.5" stroke-linecap="round" stroke-linejoin="round"/>
<path d="M51.9729 59.2493C52.9104 59.3392 53.8364 59.808 54.7752 59.988C55.8286 60.1911 56.8917 60.3747 57.9461 60.5709C59.9256 60.9453 61.9463 61.1248 63.9392 61.4042" stroke="#E5C726" stroke-width="0.5" stroke-linecap="round" stroke-linejoin="round"/>
<path d="M55.9265 58.5514C57.5045 58.7726 59.0134 59.2885 60.6049 59.5116C61.8564 59.6871 63.1 59.8199 64.3515 59.9953" stroke="#E5C726" stroke-width="0.5" stroke-linecap="round" stroke-linejoin="round"/>
<path d="M59.1244 57.706C59.6343 57.7291 60.1401 57.9798 60.6262 58.1241C61.1725 58.2837 61.7544 58.3376 62.3189 58.4167C63.1283 58.5302 64.0343 58.4496 64.806 58.6339" stroke="#E5C726" stroke-width="0.5" stroke-linecap="round" stroke-linejoin="round"/>
<path d="M61.6067 56.6704C62.4433 56.7877 63.4985 57.2746 64.3159 57.1332" stroke="#E5C726" stroke-width="0.5" stroke-linecap="round" stroke-linejoin="round"/>
<path d="M18.7932 63.1208C19.3074 63.2621 19.7991 63.6631 20.2873 63.8907C21.0226 64.2359 21.7376 64.6267 22.4807 64.966C23.9395 65.641 25.4071 66.3033 26.8843 66.9462C28.3226 67.5698 29.817 68.0906 31.289 68.6221C32.7406 69.1508 34.3705 69.8428 35.9122 69.9759" stroke="#E5C726" stroke-width="0.5" stroke-linecap="round" stroke-linejoin="round"/>
<path d="M19.2876 65.1342C20.0314 65.7158 21.1415 66.0582 21.9945 66.4545C23.0818 66.9597 24.2049 67.4077 25.329 67.8489C27.4254 68.6755 29.4668 69.5981 31.6057 70.32" stroke="#E5C726" stroke-width="0.5" stroke-linecap="round" stroke-linejoin="round"/>
<path d="M19.959 67.1722C20.3535 67.2275 20.9374 67.6138 21.3342 67.8009C22.05 68.1364 22.7543 68.505 23.4904 68.7949C24.2265 69.0849 24.9171 69.4515 25.6735 69.6959C26.3705 69.9182 27.1295 70.3912 27.8639 70.4457" stroke="#E5C726" stroke-width="0.5" stroke-linecap="round" stroke-linejoin="round"/>
<path d="M21.1441 69.5037C20.974 69.4314 21.2278 69.55 21.2609 69.5616C21.4378 69.6348 21.6139 69.7148 21.7918 69.7813C22.2215 69.9315 22.6435 70.0875 23.0733 70.2377C23.8521 70.5198 24.6058 70.8814 25.3691 71.1752" stroke="#E5C726" stroke-width="0.5" stroke-linecap="round" stroke-linejoin="round"/>
<path d="M30.8723 76.7892C31.5169 77.3361 32.773 77.7751 33.6308 78.1375C34.4885 78.4999 35.3732 78.8176 36.2541 79.114C37.48 79.5211 38.7416 79.8225 39.9732 80.1888" stroke="#E5C726" stroke-width="0.5" stroke-linecap="round" stroke-linejoin="round"/>
<path d="M33.0135 76.7019C33.1688 76.6822 33.8185 76.9947 34.0947 77.1026C34.7131 77.3414 35.3122 77.6191 35.9431 77.8183C37.0795 78.1713 38.2062 78.4953 39.3474 78.8144C41.2166 79.3324 43.1342 79.8018 45.0649 80.0794" stroke="#E5C726" stroke-width="0.5" stroke-linecap="round" stroke-linejoin="round"/>
<path d="M36.516 76.4528C37.608 76.5782 38.7666 77.218 39.8465 77.48C41.1469 77.8007 42.4664 77.9857 43.763 78.2851C44.8107 78.5288 45.8603 78.7589 46.9031 78.9881C47.6427 79.1541 48.652 79.5239 49.4015 79.4214" stroke="#E5C726" stroke-width="0.5" stroke-linecap="round" stroke-linejoin="round"/>
<path d="M40.2932 76.076C40.6288 76.2545 41.0562 76.2729 41.4246 76.3661C42.034 76.5207 42.6135 76.7403 43.2114 76.9279C44.2808 77.2646 45.4237 77.5217 46.5247 77.7314C48.3701 78.0731 50.2317 78.2995 52.0895 78.553" stroke="#E5C726" stroke-width="0.5" stroke-linecap="round" stroke-linejoin="round"/>
<path d="M44.0654 75.4357C46.2419 75.7408 48.4123 76.2872 50.5495 76.7736C51.9141 77.0825 53.3256 77.2043 54.7177 77.3164" stroke="#E5C726" stroke-width="0.5" stroke-linecap="round" stroke-linejoin="round"/>
<path d="M46.9639 74.5483C49.9913 75.5608 53.1931 76.0719 56.3558 76.5153" stroke="#E5C726" stroke-width="0.5" stroke-linecap="round" stroke-linejoin="round"/>
<path d="M50.5198 73.9192C51.0858 74.1853 51.8513 74.2165 52.4616 74.3644C53.2061 74.5448 53.9787 74.6739 54.7289 74.8136C55.8377 75.0175 56.9633 75.0024 58.0536 75.1898" stroke="#E5C726" stroke-width="0.5" stroke-linecap="round" stroke-linejoin="round"/>
<path d="M15.6377 44.1729C14.9231 44.2733 14.2513 45.0093 13.7973 45.5268C13.0723 46.3452 13.1788 47.218 12.9496 48.2097" stroke="#E5C726" stroke-width="0.5" stroke-linecap="round" stroke-linejoin="round"/>
<path d="M14.7773 43.5335C13.6108 43.8404 12.4101 44.7374 11.8928 45.8548" stroke="#E5C726" stroke-width="0.5" stroke-linecap="round" stroke-linejoin="round"/>
<path d="M13.4407 43.1732C12.5489 43.4494 11.9343 43.8267 11.4209 44.6195" stroke="#E5C726" stroke-width="0.5" stroke-linecap="round" stroke-linejoin="round"/>
<path d="M54.5146 67.0908C55.0323 67.4055 55.7713 67.3777 56.3668 67.4335C57.2567 67.5167 58.1352 67.6814 59.0251 67.7647C59.9694 67.8555 60.8951 67.8815 61.8499 67.8978C62.6046 67.9067 63.4625 68.0201 64.1975 67.9225" stroke="#E5C726" stroke-width="0.5" stroke-linecap="round" stroke-linejoin="round"/>
<path d="M58.2125 68.5155C59.9128 68.7539 61.7105 69.0405 63.402 68.8971" stroke="#E5C726" stroke-width="0.5" stroke-linecap="round" stroke-linejoin="round"/>
<path d="M60.1816 69.6564C60.9574 69.5645 62.0396 69.6609 62.8568 69.7685" stroke="#E5C726" stroke-width="0.5" stroke-linecap="round" stroke-linejoin="round"/>
<path d="M61.1883 70.4893C61.7188 70.5636 62.2395 70.609 62.7709 70.6281" stroke="#E5C726" stroke-width="0.5" stroke-linecap="round" stroke-linejoin="round"/>
</svg>
