<svg width="64" height="47" viewBox="0 0 64 47" fill="none" xmlns="http://www.w3.org/2000/svg">
<path d="M15.5287 21.7073C12.562 21.3262 9.89073 23.2264 8.54676 25.959C7.40228 28.5702 7.66314 31.6929 8.52244 34.4511C9.45975 36.8884 11.438 39.2388 13.7282 40.3052C16.6603 41.5277 19.8175 40.4255 22.7753 39.4447C26.8519 38.056 31.128 36.5458 35.2046 35.1571C35.4041 35.0356 35.8031 34.7927 35.8811 34.4717C35.5767 30.8286 34.9515 27.1074 33.9272 23.6293C33.3543 21.7904 32.9029 20.1511 32.1306 18.4337C31.3582 16.7164 30.5859 14.999 29.4146 13.5246C27.5144 10.8534 24.7382 8.98894 21.3726 8.85083C18.1284 8.9122 15.7001 11.2114 14.6771 14.022C14.0876 15.7483 14.3395 17.5091 14.7909 19.1485C15.5632 20.8658 16.5351 22.4617 18.1834 23.3722C18.6258 23.6497 19.1808 22.7648 18.7383 22.4873C17.81 21.4119 16.8816 20.3364 16.2307 18.8186C15.5019 17.6217 15.4929 16.2598 16.0044 14.8545C16.6284 12.2868 18.7793 10.4301 21.182 10.3342C24.1052 10.1948 26.6819 12.1807 28.1396 14.5745C29.8404 17.3673 31.1421 20.403 32.1229 23.3607C33.1472 26.8389 33.9719 30.4385 34.0768 34.2032C34.2763 34.0817 34.4757 33.9602 34.7532 33.5178C31.596 34.62 28.2393 35.8438 25.0821 36.946C23.4428 37.3974 21.9249 38.0483 20.2856 38.4997C18.9672 39.0291 17.5273 39.359 16.044 39.1684C11.195 38.8398 8.47002 32.5688 9.36259 28.1968C9.86515 25.4296 12.25 22.61 15.4162 22.8696C16.0581 23.0256 16.3701 21.7418 15.5287 21.7073Z" fill="#FF729F"/>
<path d="M49.9189 11.9165C49.86 9.61565 48.101 7.80754 45.865 7.10666C43.7448 6.54319 41.4007 7.10856 39.4042 8.08619C37.6608 9.08542 36.106 10.866 35.5641 12.733C34.9791 15.1064 36.1883 17.3779 37.2818 19.5118C38.817 22.4488 40.4679 25.5231 42.0031 28.4601C42.1189 28.5975 42.3506 28.8723 42.6038 28.8939C45.3386 28.2343 48.0949 27.3215 50.6195 26.1338C51.9506 25.4821 53.1442 24.9461 54.3594 24.157C55.5746 23.3678 56.7898 22.5786 57.7734 21.5146C59.5815 19.7556 60.6731 17.4253 60.3826 14.8496C59.9546 12.3898 57.9208 10.8133 55.6631 10.3657C54.2811 10.1203 52.9716 10.5188 51.778 11.0547C50.5628 11.8439 49.4634 12.7705 48.9647 14.1309C48.8057 14.5 49.5439 14.8181 49.7029 14.449C50.4116 13.6166 51.1203 12.7842 52.1981 12.1109C53.0227 11.4159 54.0573 11.2491 55.1861 11.4729C57.2121 11.6457 58.8768 13.0631 59.2321 14.8791C59.6817 17.0857 58.4743 19.2785 56.8252 20.6684C54.9013 22.29 52.7457 23.6367 50.6117 24.7302C48.087 25.9178 45.4465 26.9681 42.596 27.4903C42.7118 27.6277 42.8277 27.7651 43.1967 27.9241C41.9874 25.6527 40.6623 23.2439 39.4531 20.9725C38.9171 19.7789 38.2438 18.7011 37.7078 17.5074C37.1503 16.5671 36.7302 15.5109 36.7008 14.3605C36.3808 10.6343 40.8294 7.82511 44.2591 7.99006C46.4225 8.04702 48.847 9.52926 49.0217 11.9675C48.9785 12.474 49.9915 12.5604 49.9189 11.9165Z" fill="#FF729F"/>
</svg>
