<svg width="61" height="56" viewBox="0 0 61 56" fill="none" xmlns="http://www.w3.org/2000/svg">
<path d="M42.2569 9.07453C40.6732 11.5112 38.3148 13.4882 36.3327 15.5979C34.0925 17.9771 31.8075 20.4294 29.3639 22.5382C31.0053 23.1398 32.8265 23.2299 34.4379 23.8541C33.1249 26.2205 30.8066 28.2483 29.2657 30.5643C27.6665 32.973 25.5364 35.1884 24.0991 37.6597C27.5727 35.4271 31.1528 33.1784 34.8412 31.2038C37.4388 29.805 39.9629 28.2283 42.534 26.7592C43.8578 26.0005 45.6709 25.2821 46.7637 24.2137C45.4708 22.7348 43.7325 22.5748 42.2021 21.5906C42.8302 21.2876 43.3914 20.6755 43.9044 20.2294C45.2589 19.0413 46.6966 17.9713 48.1333 16.8775C50.1616 15.3369 52.3381 13.8786 54.4011 12.4342C53.4138 11.952 52.2869 11.7894 51.1874 11.4782C49.1452 10.909 47.0128 10.4077 44.9243 10.0521" stroke="#FF9933" stroke-width="1.5" stroke-linecap="round" stroke-linejoin="round"/>
<path d="M13.5789 11.2258C13.8255 13.2621 13.5389 15.4098 13.4932 17.4552C13.4263 20.4103 13.4851 23.4175 13.5204 26.3709C13.5864 32.4017 13.6182 38.7121 14.3059 44.7041" stroke="#FF9933" stroke-width="1.5" stroke-linecap="round" stroke-linejoin="round"/>
<path d="M4.01624 27.1041C4.47756 26.917 5.42903 31.8114 5.63617 32.6621C6.4461 36.0751 7.33989 39.6847 7.7034 43.1796" stroke="#FF9933" stroke-width="1.5" stroke-linecap="round" stroke-linejoin="round"/>
<path d="M27.2363 46.8909C29.7779 45.8203 32.7363 44.8236 35.4139 43.8238C41.5002 41.5431 47.5016 38.8542 53.7247 36.9654" stroke="#FF9933" stroke-width="1.5" stroke-linecap="round" stroke-linejoin="round"/>
<path d="M36.3835 49.5452C40.7684 48.9469 45.0649 47.4932 49.4883 47.086" stroke="#FF9933" stroke-width="1.5" stroke-linecap="round" stroke-linejoin="round"/>
</svg>
