<svg width="408" height="394" viewBox="0 0 408 394" fill="none" xmlns="http://www.w3.org/2000/svg">
<g filter="url(#filter0_d_84_57)">
<path d="M331.967 379.101C331.452 380.432 331.195 381.78 331.127 383.134C329.67 382.812 328.577 382.595 328.183 382.534L327.746 385.348C327.573 385.238 327.412 385.13 327.239 385.02C327.154 384.96 327.074 384.935 326.999 384.888C326.492 383.801 325.986 382.702 325.479 381.615C325.124 380.848 324.313 381.41 324.234 382.145C324.019 382.005 323.792 381.863 323.559 381.755C323.05 381.522 322.292 382.199 322.572 382.919C322.623 383.045 322.665 383.158 322.717 383.285C322.601 383.267 322.487 383.309 322.372 383.362C322.022 383.023 321.654 382.717 321.298 382.412L366.617 90.9422L375.709 92.3559C375.74 93.1438 375.845 93.9192 375.975 94.6867C375.285 94.6981 374.684 94.7471 374.229 94.8542C372.616 100.345 371.599 106.889 372.048 108.88C372.499 110.86 385.124 112.823 385.865 112.939C386.19 112.989 385.757 110.585 385.281 107.616C385.745 107.914 386.213 108.188 386.707 108.443C387.189 108.696 387.707 108.421 387.985 107.93C388.385 108.253 388.787 108.565 389.19 108.877C389.753 109.296 390.38 109.002 390.702 108.459C391.593 109.06 392.512 109.559 393.349 109.974L390.804 136.565L396.507 151.461C390.931 152.077 386.663 151.829 387.124 148.33C388.413 144.011 382.763 139.075 382.851 138.508C382.977 137.697 370.746 134.953 367.852 136.176C365.956 142.571 364.94 149.104 365.44 151.684C369.77 153.057 374.804 153.947 377.436 153.882C381.355 155.072 385.244 156.377 389.125 157.739L384.043 193.402C383.536 192.92 383.01 192.494 382.451 192.123C382.426 191.822 382.338 191.548 382.132 191.349C381.059 190.317 381.154 190.391 379.85 189.702C379.553 189.549 379.264 189.575 379.04 189.718C378.909 189.65 378.788 189.584 378.657 189.516C378.106 189.241 377.527 189.685 377.27 190.273C377.132 190.394 377.026 190.544 376.941 190.708C376.392 190.35 375.812 190.035 375.213 189.847L376.83 179.446C374.363 179.062 363.033 176.245 361.389 175.989C359.78 186.332 357.17 192.285 358.655 193.571C360.902 194.68 367.995 195.45 371.797 195.792C371.931 195.92 372.083 196.015 372.255 196.053C372.269 196.115 372.285 196.165 372.31 196.228C372.357 196.389 372.431 196.52 372.509 196.627C372.645 196.897 372.865 197.085 373.115 197.16C372.774 198.281 373.627 199.054 374.348 198.763C374.573 198.917 374.848 198.983 375.119 198.919C375.385 199.114 375.721 199.166 376.016 199.022C376.181 199.641 376.717 200.009 377.191 199.858C377.224 199.875 377.243 199.901 377.265 199.917C377.292 200.502 377.67 200.976 378.133 201.048C378.429 201.509 379.007 201.682 379.504 201.309C379.725 201.794 380.239 202.075 380.707 201.887C380.791 201.959 380.889 202.01 380.99 202.05C380.94 202.599 381.267 203.089 381.705 203.252C381.657 203.328 381.598 203.402 381.551 203.477C381.029 204.238 381.366 205.43 382.121 205.535C382.179 205.544 382.225 205.551 382.271 205.559L380.171 220.285L383.142 247.568C382.823 247.329 382.562 247.027 382.353 246.615C382.183 246.256 381.862 246.112 381.55 246.134C380.604 245.275 379.59 244.548 378.559 243.854C378.604 243.339 378.419 242.848 378.014 242.631C377.335 242.264 376.906 241.438 376.978 240.441C377.012 239.996 376.91 239.505 376.618 239.246C376.629 239.023 376.64 238.799 376.643 238.55C376.656 238.09 376.431 237.782 376.125 237.616C376.088 237.468 376.037 237.341 375.958 237.234C376.124 236.856 376.216 236.42 376.186 236C376.188 235.989 376.178 235.975 376.182 235.952C377.437 231.307 370.119 220.929 370.119 220.929C370.119 220.929 355.5 217.6 353.855 217.344L351.282 233.896C351.282 233.896 362.104 236.468 365.858 237.194C365.847 237.263 365.86 237.336 365.86 237.408C365.862 237.776 365.989 238.033 366.164 238.202C366.284 238.423 366.471 238.594 366.68 238.698C366.673 238.744 366.667 238.779 366.66 238.825C366.585 239.383 366.777 239.828 367.096 240.067C367.134 241.497 367.527 242.483 368.487 243.249C368.443 243.764 368.633 244.221 369.031 244.484C370.395 245.396 371.74 246.282 372.939 247.5C373.042 247.599 373.151 247.663 373.263 247.705C373.716 248.297 374.285 248.682 374.888 249.001L369.694 282.405C366.97 279.786 364.183 277.265 361.32 274.851C362.29 270.826 363.32 264.272 362.618 262.23C356.822 260.368 350.892 259.446 348.511 260.036C346.898 265.527 345.88 272.071 346.33 274.062C346.781 276.042 359.406 278.005 360.147 278.121C360.217 278.131 360.317 278.017 360.425 277.784C363.409 280.336 366.327 283.008 369.17 285.775L366.511 305.551L366.56 323.163C366.3 323.158 366.038 323.165 365.759 323.204C365.58 322.144 365.384 321.117 365.01 320.087C364.605 318.956 363.673 318.538 362.824 318.964C362.742 318.726 362.663 318.476 362.558 318.234C362.181 317.298 361.276 316.789 360.482 317.01C360.244 316.558 359.979 316.125 359.678 315.699C359.396 315.299 359.062 315.081 358.71 314.979C358.69 314.727 358.682 314.476 358.662 314.224C358.643 313.96 358.595 313.739 358.521 313.526C359.391 309.687 357.044 304.103 357.111 303.675C357.237 302.864 345.007 300.12 342.112 301.343C340.216 307.738 339.2 314.271 339.701 316.851C341.837 317.528 344.158 318.09 346.269 318.477C343.45 321.728 342.43 327.299 343.735 331.642C343.034 331.806 342.344 332.043 341.717 332.337C339.52 333.347 337.84 335.684 336.748 338.207C336.357 339.119 336.102 340.147 335.969 341.23C335.83 341.208 335.715 341.19 335.634 341.177C334.025 351.52 331.415 357.473 332.9 358.759C334.993 359.796 341.285 360.526 345.211 360.911C345.723 361.809 346.347 362.606 347.002 363.348C344.518 364.374 342.266 366.728 341.018 369.642C340.629 370.542 340.367 371.462 340.225 372.377C339.1 372.44 337.947 372.759 336.887 373.246C334.83 374.196 332.864 376.69 331.917 379.117L331.967 379.101Z" fill="#E8FCC2"/>
<path d="M382.107 191.358C381.033 190.325 381.129 190.399 379.824 189.71C379.528 189.557 379.239 189.583 379.015 189.726C378.883 189.658 378.763 189.592 378.631 189.524C378.081 189.249 377.502 189.693 377.244 190.281C377.107 190.402 377.001 190.552 376.916 190.717C376.366 190.358 375.787 190.043 375.187 189.855L376.131 183.786C377.828 183.243 379.53 182.677 381.206 181.965C382.821 181.267 384.408 180.446 385.981 179.564L384.006 193.409C383.5 192.927 382.973 192.501 382.414 192.129C382.389 191.829 382.301 191.554 382.095 191.356L382.107 191.358Z" fill="#EBE2D2" fill-opacity="0.8"/>
<path opacity="0.48" d="M371.373 197.981C371.327 197.819 371.281 197.658 371.206 197.528C371.124 197.372 371.009 197.271 370.891 197.194C370.864 197.059 370.839 196.913 370.799 196.788C370.712 196.513 370.585 196.34 370.422 196.243C370.325 196.026 370.163 195.847 369.919 195.738C369.841 195.702 369.772 195.691 369.702 195.68C369.706 195.657 369.71 195.634 369.725 195.613C370.46 195.691 371.162 195.753 371.77 195.812C371.904 195.94 372.055 196.034 372.227 196.073C372.242 196.134 372.258 196.184 372.283 196.248C372.329 196.409 372.404 196.539 372.482 196.646C372.618 196.917 372.838 197.105 373.087 197.179C372.747 198.301 373.599 199.074 374.321 198.783C374.546 198.936 374.82 199.003 375.091 198.938C375.358 199.134 375.694 199.186 375.989 199.042C376.153 199.661 376.689 200.029 377.164 199.877C377.197 199.894 377.216 199.921 377.238 199.936C377.265 200.522 377.642 200.996 378.106 201.068C378.402 201.529 378.98 201.702 379.477 201.328C379.698 201.813 380.212 202.095 380.68 201.907C380.763 201.979 380.862 202.03 380.963 202.069C380.913 202.619 381.24 203.109 381.677 203.272C381.63 203.347 381.571 203.421 381.526 203.485C381.004 204.247 381.341 205.438 382.095 205.543C382.153 205.552 382.2 205.559 382.246 205.567L382.046 206.852C381.957 206.815 381.855 206.787 381.748 206.782C381.702 206.241 381.295 205.881 380.864 205.909C380.724 205.591 380.427 205.438 380.107 205.436C379.953 205.21 379.735 205.081 379.489 205.067C379.337 204.747 379.013 204.542 378.701 204.565C378.645 204.236 378.434 203.989 378.167 203.877C378.074 203.483 377.83 203.219 377.533 203.149C377.452 202.603 376.942 202.298 376.507 202.421C376.364 201.971 376.024 201.717 375.662 201.755C375.644 201.563 375.577 201.386 375.492 201.243C375.397 200.635 374.891 200.153 374.347 200.448C374.221 200.262 374.041 200.127 373.847 200.073C373.687 199.657 373.274 199.415 372.88 199.508C372.745 199.38 372.565 199.317 372.388 199.313C372.286 199.131 372.142 198.99 371.977 198.905C371.979 198.431 371.702 198.079 371.354 197.954L371.373 197.981Z" fill="#EBE2D2" fill-opacity="0.8"/>
<path d="M381.56 246.147C380.614 245.289 379.6 244.562 378.569 243.868C378.614 243.353 378.429 242.861 378.024 242.644C377.345 242.278 376.916 241.452 376.988 240.455C377.022 240.009 376.92 239.519 376.628 239.26C376.639 239.036 376.65 238.812 376.653 238.564C376.666 238.103 376.441 237.795 376.135 237.629C376.098 237.481 376.047 237.354 375.968 237.247C376.134 236.87 376.226 236.433 376.196 236.013C376.198 236.002 376.188 235.988 376.192 235.965C376.419 235.111 376.358 234.058 376.108 232.916C378.118 234.106 380.076 235.395 381.975 236.841L383.152 247.581C382.833 247.342 382.572 247.04 382.363 246.628C382.193 246.27 381.872 246.125 381.56 246.147Z" fill="#EBE2D2" fill-opacity="0.8"/>
<path opacity="0.68" d="M365.044 320.092C364.639 318.961 363.707 318.544 362.858 318.969C362.777 318.731 362.697 318.481 362.592 318.24C362.216 317.303 361.31 316.795 360.517 317.016C360.279 316.563 360.014 316.131 359.712 315.704C359.43 315.305 359.097 315.087 358.745 314.984C358.725 314.732 358.716 314.482 358.696 314.23C358.678 313.966 358.629 313.745 358.555 313.532C358.706 312.867 358.758 312.151 358.741 311.425C360.244 310.224 361.726 309.007 363.183 307.727C364.296 306.749 365.541 305.757 366.654 304.625L366.532 305.567L366.581 323.178C366.321 323.173 366.059 323.18 365.78 323.219C365.601 322.16 365.404 321.133 365.031 320.102L365.044 320.092Z" fill="#EBE2D2" fill-opacity="0.8"/>
<path opacity="0.46" d="M382.828 138.504L392.107 122.77L390.826 137.031L391.868 139.412C391.868 139.412 391.868 139.412 391.88 139.413L392.006 139.742L396.495 151.46C390.919 152.075 386.652 151.827 387.113 148.328C387.808 145.993 386.468 143.471 385.116 141.565C385.116 141.565 385.127 141.566 385.139 141.568C384.303 140.762 382.837 138.518 382.837 138.518L382.828 138.504Z" fill="#EBE2D2" fill-opacity="0.8"/>
<path d="M358.294 97.0148C364.51 108.076 363.651 123.518 360.752 140.635C348.036 215.787 335.319 290.939 322.604 366.079C321.813 370.784 319.258 376.84 314.555 376.038C312.07 375.616 310.446 373.323 308.589 371.61C297.189 361.084 278.248 372.658 263.466 367.94C249.892 363.611 198.386 363.764 170.236 355.295C168.819 354.873 122.354 344.268 121.3 344.104C84.9549 338.453 4.45651 325.486 4.45651 325.486C5.54602 318.479 36.5045 122.036 50.539 43.1385C143.783 54.6944 236.894 67.1903 329.869 80.6262C344.847 82.789 353.593 88.6446 358.294 97.0148Z" fill="#E8FCC2"/>
</g>
<g filter="url(#filter1_d_84_57)">
<rect x="258" y="95.8225" width="150.749" height="33.6436" transform="rotate(-39.4676 258 95.8225)" fill="#FF9933" fill-opacity="0.8" shape-rendering="crispEdges"/>
</g>
<g filter="url(#filter2_d_84_57)">
<rect x="135" y="351.638" width="130.733" height="24.4912" transform="rotate(-1.5945 135 351.638)" fill="#FF9933" fill-opacity="0.8" shape-rendering="crispEdges"/>
</g>
<g filter="url(#filter3_d_84_57)">
<path d="M316.884 228.252C314.906 230.392 313.511 232.567 312.56 234.538C311.587 236.508 311.066 238.275 310.725 239.703L316.884 228.252ZM316.884 228.252C317.877 227.189 319.006 226.13 320.323 225.173C321.184 224.548 322.122 223.948 323.136 223.451L316.884 228.252ZM323.438 221.268C323.261 220.646 323.115 220.006 323.002 219.353C322.456 216.045 322.866 212.895 323.563 210.066C324.273 207.233 325.31 204.692 326.289 202.37L326.291 202.367C328.224 197.692 329.814 193.638 330.999 190.09C332.191 186.552 333.021 183.532 333.589 180.974L333.589 180.97L333.589 180.97C334.134 178.412 334.439 176.315 334.577 174.621L334.578 174.619L334.578 174.619C334.604 174.276 334.627 173.949 334.645 173.638C334.6 176.363 334.149 179.928 333.129 184.024L333.128 184.025C331.902 188.981 329.878 194.691 327.371 200.841L327.37 200.843C327.138 201.423 326.894 202.014 326.647 202.612C326.246 203.583 325.838 204.57 325.461 205.554L325.46 205.557C324.853 207.171 324.305 208.843 323.898 210.575L323.438 221.268ZM323.438 221.268C323.575 221.211 323.713 221.157 323.854 221.104M323.438 221.268L323.854 221.104M323.854 221.104C322.856 217.61 323.107 213.936 323.898 210.575L323.854 221.104ZM326.732 220.934C326.103 220.992 325.509 221.11 324.946 221.269M326.732 220.934C327.206 220.893 327.697 220.911 328.206 220.975M326.732 220.934L326.775 221.432C326.775 221.432 326.776 221.432 326.776 221.432M326.732 220.934L326.778 221.431C326.777 221.431 326.777 221.432 326.776 221.432M324.946 221.269L323.407 222.773C323.559 222.705 323.712 222.64 323.867 222.577M324.946 221.269C324.996 221.429 325.048 221.588 325.102 221.745M324.946 221.269L324.281 222.417M328.206 220.975C328.685 221.05 329.168 221.162 329.64 221.317C330.586 221.626 331.538 222.11 332.352 222.864M328.206 220.975L328.128 221.469C328.131 221.469 328.133 221.469 328.136 221.47M328.206 220.975L328.144 221.471C328.141 221.471 328.139 221.47 328.136 221.47M332.352 222.864C333.152 223.625 333.834 224.666 333.886 225.981M332.352 222.864L332.008 223.226C332.009 223.227 332.009 223.228 332.01 223.229M332.352 222.864L332.013 223.231C332.012 223.23 332.011 223.23 332.01 223.229M333.886 225.981C333.905 227.242 333.384 228.481 332.356 229.353M333.886 225.981L333.386 225.989C333.386 225.991 333.386 225.993 333.386 225.994M333.886 225.981L333.386 226C333.386 225.998 333.386 225.996 333.386 225.994M332.356 229.353C331.843 229.782 331.144 230.094 330.391 230.097M332.356 229.353L332.036 228.969C332.035 228.97 332.035 228.97 332.035 228.971M332.356 229.353L332.033 228.972C332.033 228.971 332.034 228.971 332.035 228.971M330.391 230.097C329.63 230.1 328.947 229.783 328.411 229.428M330.391 230.097L330.389 229.597C330.389 229.597 330.389 229.597 330.389 229.597M330.391 230.097L330.389 229.597M328.411 229.428C327.369 228.705 326.462 227.842 325.656 226.82C324.915 225.881 324.291 224.831 323.786 223.698C323.938 223.63 324.091 223.565 324.246 223.502M328.411 229.428L328.696 229.017C328.694 229.016 328.693 229.015 328.692 229.014M328.411 229.428L328.687 229.011C328.689 229.012 328.69 229.013 328.692 229.014M324.246 223.502C324.178 223.35 324.113 223.197 324.05 223.042C323.987 222.889 323.926 222.733 323.867 222.577M324.246 223.502C324.734 224.596 325.336 225.608 326.048 226.51M324.246 223.502C324.383 223.447 324.521 223.394 324.661 223.343M323.867 222.577C324.004 222.521 324.142 222.468 324.281 222.417M323.867 222.577C323.824 222.46 323.782 222.343 323.741 222.225M324.281 222.417L323.282 222.428C323.433 222.358 323.586 222.291 323.741 222.225M324.281 222.417C324.339 222.574 324.4 222.729 324.463 222.883C324.527 223.038 324.592 223.191 324.661 223.343M324.281 222.417C324.392 222.376 324.505 222.337 324.618 222.298C324.663 222.283 324.708 222.268 324.753 222.253C324.911 222.202 325.072 222.154 325.233 222.109M324.281 222.417C324.237 222.299 324.194 222.18 324.153 222.06M323.741 222.225C323.876 222.168 324.014 222.113 324.153 222.06M323.741 222.225L324.153 222.06M325.102 221.745C325.632 221.596 326.189 221.486 326.776 221.432M325.102 221.745C325.144 221.867 325.188 221.989 325.233 222.109M325.102 221.745C324.94 221.79 324.781 221.84 324.624 221.892C324.464 221.945 324.307 222.001 324.153 222.06M326.776 221.432C327.205 221.395 327.657 221.411 328.136 221.47M328.136 221.47C328.588 221.542 329.043 221.647 329.485 221.792C330.378 222.084 331.261 222.536 332.01 223.229M332.01 223.229C332.749 223.933 333.339 224.856 333.386 225.994M333.386 225.994C333.402 227.109 332.941 228.201 332.035 228.971M332.035 228.971C331.596 229.337 331.007 229.594 330.389 229.597M330.389 229.597C329.769 229.6 329.185 229.34 328.692 229.014M328.692 229.014C327.695 228.322 326.825 227.494 326.048 226.51M326.048 226.51C326.048 226.51 326.048 226.51 326.048 226.51L325.656 226.819L326.048 226.51ZM324.661 223.343C324.752 223.31 324.845 223.277 324.937 223.246L324.938 223.246C325.004 223.223 325.07 223.202 325.136 223.181C325.848 224.75 326.817 226.142 327.996 227.243M324.661 223.343C325.399 224.984 326.412 226.447 327.654 227.608M325.233 222.109C325.293 222.267 325.354 222.423 325.419 222.577L327.329 222.308L327.332 221.808C327.331 221.808 327.331 221.808 327.331 221.808C326.621 221.804 325.912 221.923 325.233 222.109ZM327.654 227.608C327.654 227.608 327.653 227.607 327.653 227.607L327.996 227.243M327.654 227.608C327.654 227.608 327.654 227.608 327.655 227.609L327.996 227.243M327.654 227.608C328.07 228 328.547 228.398 328.999 228.693M327.996 227.243C328.399 227.624 328.854 228.002 329.273 228.275M329.273 228.275L328.998 228.692C328.998 228.692 328.998 228.693 328.999 228.693M329.273 228.275C329.699 228.556 330.102 228.676 330.473 228.656M329.273 228.275L329 228.694C329 228.694 328.999 228.693 328.999 228.693M328.999 228.693C329.488 229.015 329.992 229.181 330.493 229.155M330.473 228.656L330.485 229.156C330.487 229.155 330.49 229.155 330.493 229.155M330.473 228.656C331.227 228.638 331.97 227.888 332.269 227.058M330.473 228.656L330.5 229.155C330.498 229.155 330.495 229.155 330.493 229.155M330.493 229.155C331.027 229.14 331.51 228.872 331.881 228.528C332.255 228.182 332.558 227.724 332.735 227.241M332.269 227.058L332.73 227.253C332.731 227.249 332.733 227.245 332.735 227.241M332.269 227.058C332.996 225.35 331.571 223.655 329.913 222.94M332.269 227.058L332.74 227.228C332.738 227.232 332.737 227.236 332.735 227.241M332.735 227.241C333.171 226.204 332.943 225.182 332.404 224.354C331.871 223.533 331.018 222.873 330.115 222.482M329.913 222.94L330.12 222.484C330.118 222.484 330.117 222.483 330.115 222.482M329.913 222.94L330.111 222.48C330.113 222.481 330.114 222.482 330.115 222.482M329.913 222.94L330.115 222.482M311.098 236.69C311.37 235.942 311.701 235.148 312.111 234.319C313.082 232.305 314.504 230.09 316.517 227.912L316.519 227.911C317.527 226.831 318.68 225.749 320.029 224.769L320.029 224.769C320.916 224.125 321.891 223.501 322.952 222.985C322.91 222.872 322.869 222.759 322.828 222.646C322.578 222.77 322.333 222.899 322.092 223.029C320.737 223.776 319.585 224.649 318.558 225.533C316.511 227.303 315.04 229.134 313.929 230.806C312.453 233.083 311.613 235.058 311.098 236.69ZM324.326 220.937C323.369 217.561 323.608 213.99 324.385 210.69L324.326 220.937ZM322.666 222.168C322.388 222.305 322.117 222.447 321.853 222.59C320.457 223.359 319.276 224.255 318.232 225.154L322.666 222.168Z" fill="#1B92A7" fill-opacity="0.75" stroke="#1B92A7"/>
<path d="M311.954 134.212C310.547 151.383 320.149 169.507 333.745 170.621C334.277 170.664 334.812 170.679 335.341 170.672C348.285 170.451 359.813 154.74 361.165 138.245C362.516 121.751 351.121 108.014 337.533 106.9C323.945 105.786 313.362 117.042 311.954 134.212Z" fill="#1B92A7" fill-opacity="0.75" stroke="#1B92A7" stroke-width="2" stroke-miterlimit="10"/>
<path d="M334.95 171.813L337.679 177.758C337.679 177.758 334.06 178.352 331.606 176.927L334.307 171.797C334.445 171.533 334.828 171.542 334.95 171.813Z" fill="#1B92A7" fill-opacity="0.75" stroke="#1B92A7" stroke-width="2" stroke-miterlimit="10"/>
<path d="M356.033 127.181C356.033 127.181 356.031 127.18 356.029 127.179C356.031 127.18 356.033 127.181 356.033 127.181ZM355.773 126.883C355.767 126.8 355.757 126.707 355.742 126.603C355.604 125.728 355.17 124.26 354.19 122.371L354.189 122.369C353.476 120.984 352.676 119.803 352.014 119.02C351.722 118.675 351.469 118.421 351.272 118.262C351.287 118.295 351.304 118.332 351.324 118.373L351.328 118.381L351.332 118.39C351.447 118.646 351.661 118.99 352.006 119.543C352.039 119.597 352.074 119.653 352.109 119.71C352.505 120.347 353.026 121.196 353.666 122.356L353.666 122.356L353.669 122.363C354.428 123.792 354.88 124.867 355.193 125.611C355.303 125.872 355.396 126.092 355.478 126.273L355.479 126.273L355.483 126.282C355.605 126.563 355.7 126.754 355.773 126.883Z" fill="#1B92A7" fill-opacity="0.75" stroke="#1B92A7"/>
<path d="M323.947 161.35C323.7 161.112 323.515 160.947 323.371 160.832C323.419 160.919 323.477 161.016 323.544 161.123C324.093 161.968 325.23 163.302 327.194 164.715L327.194 164.715L327.197 164.717C328.626 165.759 330.071 166.487 331.166 166.889C331.641 167.063 332.035 167.171 332.324 167.22C332.291 167.198 332.254 167.175 332.213 167.15L332.205 167.145L332.197 167.14C331.993 167.007 331.72 166.862 331.337 166.658C331.142 166.554 330.918 166.435 330.66 166.294C329.918 165.897 328.923 165.351 327.688 164.498L327.688 164.498L327.685 164.496C326.017 163.326 325.013 162.365 324.348 161.729C324.202 161.589 324.072 161.465 323.956 161.358L323.955 161.358L323.947 161.35ZM332.717 167.243C332.717 167.243 332.717 167.244 332.715 167.244L332.717 167.243ZM322.94 160.619C322.941 160.62 322.943 160.62 322.947 160.619C322.942 160.619 322.94 160.619 322.94 160.619Z" fill="#1B92A7" fill-opacity="0.75" stroke="#1B92A7"/>
<path d="M316.239 147.938C316.239 147.938 316.24 147.938 316.241 147.938L316.239 147.938ZM316.673 148.505C316.558 148.281 316.475 148.146 316.412 148.062C316.415 148.123 316.422 148.197 316.435 148.287C316.528 148.927 316.879 149.992 317.559 151.471C318.059 152.535 318.572 153.473 319.01 154.103C319.217 154.401 319.391 154.606 319.523 154.724C319.518 154.696 319.511 154.66 319.499 154.615L319.499 154.615L319.497 154.609C319.445 154.399 319.317 154.082 319.074 153.56C318.899 153.184 318.674 152.723 318.392 152.146C318.29 151.935 318.179 151.708 318.061 151.465L318.061 151.465L318.058 151.459C317.769 150.844 317.533 150.333 317.336 149.906C317.046 149.275 316.84 148.829 316.673 148.505ZM319.529 154.819C319.529 154.819 319.529 154.818 319.529 154.817L319.529 154.819Z" fill="#1B92A7" fill-opacity="0.75" stroke="#1B92A7"/>
<path d="M315.279 142.712C315.279 142.713 315.28 142.714 315.281 142.715L315.303 142.721C315.315 142.725 315.326 142.727 315.334 142.729C315.345 142.704 315.358 142.666 315.372 142.609C315.456 142.261 315.462 141.644 315.438 140.67L315.438 140.669C315.432 140.377 315.432 140.11 315.432 139.865C315.432 139.484 315.432 139.158 315.408 138.873C315.39 138.661 315.361 138.531 315.333 138.46C315.303 138.456 315.28 138.453 315.26 138.452C315.256 138.452 315.253 138.452 315.25 138.452C315.246 138.457 315.242 138.463 315.237 138.471C315.13 138.662 314.973 139.207 314.981 140.493C315.015 141.567 315.086 142.153 315.178 142.477C315.222 142.634 315.263 142.693 315.278 142.712L315.279 142.712ZM315.381 142.736C315.381 142.736 315.38 142.736 315.377 142.736C315.38 142.736 315.381 142.736 315.381 142.736Z" fill="#1B92A7" fill-opacity="0.75" stroke="#1B92A7"/>
<path d="M350.837 157.975L350.837 157.975L350.839 157.973C351.5 157.184 352.017 156.408 352.307 155.813C352.45 155.521 352.523 155.303 352.546 155.163C352.526 155.175 352.497 155.196 352.459 155.23L352.459 155.23L352.451 155.237C352.319 155.349 352.139 155.561 351.834 155.956C351.738 156.08 351.63 156.221 351.51 156.378C351.267 156.698 350.972 157.084 350.617 157.536L350.617 157.536L350.613 157.541C350.157 158.105 349.773 158.538 349.462 158.881C349.376 158.975 349.297 159.062 349.225 159.141C349.029 159.355 348.88 159.517 348.765 159.659L348.765 159.659L348.761 159.663C348.611 159.843 348.538 159.956 348.503 160.028C348.552 160.008 348.611 159.981 348.679 159.945C349.163 159.684 349.937 159.064 350.837 157.975ZM352.552 155.067C352.552 155.067 352.552 155.072 352.554 155.079C352.553 155.07 352.553 155.067 352.552 155.067Z" fill="#1B92A7" fill-opacity="0.75" stroke="#1B92A7"/>
</g>
<defs>
<filter id="filter0_d_84_57" x="0.456055" y="43.1385" width="400.051" height="350.21" filterUnits="userSpaceOnUse" color-interpolation-filters="sRGB">
<feFlood flood-opacity="0" result="BackgroundImageFix"/>
<feColorMatrix in="SourceAlpha" type="matrix" values="0 0 0 0 0 0 0 0 0 0 0 0 0 0 0 0 0 0 127 0" result="hardAlpha"/>
<feOffset dy="4"/>
<feGaussianBlur stdDeviation="2"/>
<feComposite in2="hardAlpha" operator="out"/>
<feColorMatrix type="matrix" values="0 0 0 0 0 0 0 0 0 0 0 0 0 0 0 0 0 0 0.25 0"/>
<feBlend mode="normal" in2="BackgroundImageFix" result="effect1_dropShadow_84_57"/>
<feBlend mode="normal" in="SourceGraphic" in2="effect1_dropShadow_84_57" result="shape"/>
</filter>
<filter id="filter1_d_84_57" x="254" y="0" width="145.762" height="129.795" filterUnits="userSpaceOnUse" color-interpolation-filters="sRGB">
<feFlood flood-opacity="0" result="BackgroundImageFix"/>
<feColorMatrix in="SourceAlpha" type="matrix" values="0 0 0 0 0 0 0 0 0 0 0 0 0 0 0 0 0 0 127 0" result="hardAlpha"/>
<feOffset dy="4"/>
<feGaussianBlur stdDeviation="2"/>
<feComposite in2="hardAlpha" operator="out"/>
<feColorMatrix type="matrix" values="0 0 0 0 0 0 0 0 0 0 0 0 0 0 0 0 0 0 0.25 0"/>
<feBlend mode="normal" in2="BackgroundImageFix" result="effect1_dropShadow_84_57"/>
<feBlend mode="normal" in="SourceGraphic" in2="effect1_dropShadow_84_57" result="shape"/>
</filter>
<filter id="filter2_d_84_57" x="131" y="348" width="139.363" height="36.1194" filterUnits="userSpaceOnUse" color-interpolation-filters="sRGB">
<feFlood flood-opacity="0" result="BackgroundImageFix"/>
<feColorMatrix in="SourceAlpha" type="matrix" values="0 0 0 0 0 0 0 0 0 0 0 0 0 0 0 0 0 0 127 0" result="hardAlpha"/>
<feOffset dy="4"/>
<feGaussianBlur stdDeviation="2"/>
<feComposite in2="hardAlpha" operator="out"/>
<feColorMatrix type="matrix" values="0 0 0 0 0 0 0 0 0 0 0 0 0 0 0 0 0 0 0.25 0"/>
<feBlend mode="normal" in2="BackgroundImageFix" result="effect1_dropShadow_84_57"/>
<feBlend mode="normal" in="SourceGraphic" in2="effect1_dropShadow_84_57" result="shape"/>
</filter>
<filter id="filter3_d_84_57" x="305.699" y="105.823" width="60.5742" height="146.222" filterUnits="userSpaceOnUse" color-interpolation-filters="sRGB">
<feFlood flood-opacity="0" result="BackgroundImageFix"/>
<feColorMatrix in="SourceAlpha" type="matrix" values="0 0 0 0 0 0 0 0 0 0 0 0 0 0 0 0 0 0 127 0" result="hardAlpha"/>
<feOffset dy="4"/>
<feGaussianBlur stdDeviation="2"/>
<feComposite in2="hardAlpha" operator="out"/>
<feColorMatrix type="matrix" values="0 0 0 0 0 0 0 0 0 0 0 0 0 0 0 0 0 0 0.25 0"/>
<feBlend mode="normal" in2="BackgroundImageFix" result="effect1_dropShadow_84_57"/>
<feBlend mode="normal" in="SourceGraphic" in2="effect1_dropShadow_84_57" result="shape"/>
</filter>
</defs>
</svg>
