<svg width="440" height="399" viewBox="0 0 440 399" fill="none" xmlns="http://www.w3.org/2000/svg">
<g filter="url(#filter0_d_84_86)">
<rect x="65.6904" y="51" width="317.522" height="317.522" rx="5" transform="rotate(3.01308 65.6904 51)" fill="#FEE665"/>
</g>
<rect x="87.5938" y="73" width="271.443" height="277.932" rx="4" transform="rotate(3.01 87.5938 73)" fill="#D0F4EA"/>
<g filter="url(#filter1_d_84_86)">
<path d="M407.004 244.762C421.373 225.289 417.235 197.855 397.762 183.487C378.289 169.118 350.855 173.256 336.487 192.729C322.119 212.202 326.257 239.636 345.729 254.004C365.202 268.372 392.636 264.234 407.004 244.762Z" fill="#F1D954"/>
<path d="M357.949 213.373C357.718 213.255 357.445 213.168 357.246 213.013C357.031 212.837 356.833 212.577 356.979 212.267C357.118 211.968 357.357 211.812 357.72 211.878C357.899 211.917 358.073 211.966 358.236 212.036C362.599 214.016 366.736 213.564 370.636 210.859C373.029 209.209 374.942 207.049 376.661 204.724C377.397 203.724 378.071 202.692 378.777 201.675C378.873 201.539 378.995 201.43 379.086 201.304C379.251 201.058 379.473 201.012 379.715 201.136C379.956 201.259 380.065 201.461 379.957 201.75C379.675 202.559 379.41 203.363 379.123 204.157C377.981 207.399 377.122 210.707 377.143 214.187C377.172 218.479 379.029 221.839 382.427 224.385C382.736 224.609 383.119 224.739 383.439 224.942C383.775 225.167 384.136 225.418 383.952 225.907C383.817 226.275 383.546 226.467 383.142 226.274C377.741 223.683 372.969 224.883 368.658 228.703C366.383 230.717 364.537 233.109 362.874 235.635C362.612 236.044 362.292 236.41 362.02 236.813C361.833 237.075 361.6 237.142 361.343 236.997C361.102 236.874 361.03 236.651 361.133 236.373C361.506 235.306 361.885 234.229 362.238 233.151C363.437 229.488 364.362 225.763 363.749 221.862C363.167 218.134 361.115 215.337 357.933 213.351L357.949 213.373Z" fill="white"/>
<path d="M364.205 196.976C364.153 196.949 364.09 196.917 364.038 196.89C363.98 196.847 363.933 196.783 363.971 196.71C364.008 196.636 364.067 196.6 364.151 196.617C364.198 196.628 364.235 196.633 364.277 196.655C365.332 197.128 366.34 197.022 367.285 196.366C367.863 195.96 368.327 195.442 368.748 194.877C368.925 194.636 369.09 194.39 369.261 194.133C369.277 194.101 369.315 194.081 369.336 194.039C369.368 193.976 369.426 193.966 369.489 193.998C369.552 194.03 369.568 194.078 369.546 194.146C369.476 194.335 369.41 194.54 369.34 194.729C369.059 195.512 368.856 196.322 368.864 197.161C368.876 198.2 369.317 199.021 370.144 199.629C370.223 199.683 370.312 199.715 370.396 199.758C370.48 199.801 370.563 199.871 370.525 199.997C370.482 200.081 370.429 200.133 370.335 200.085C369.028 199.456 367.87 199.751 366.818 200.669C366.265 201.154 365.822 201.735 365.416 202.349C365.352 202.448 365.277 202.542 365.203 202.637C365.165 202.71 365.096 202.715 365.033 202.683C364.97 202.65 364.955 202.603 364.977 202.534C365.069 202.277 365.161 202.019 365.242 201.757C365.535 200.873 365.76 199.969 365.61 199.018C365.466 198.11 364.976 197.436 364.2 196.96L364.205 196.976Z" fill="white"/>
<path d="M379.473 235.466C379.421 235.439 379.358 235.407 379.305 235.38C379.248 235.338 379.201 235.274 379.238 235.2C379.276 235.127 379.334 235.091 379.418 235.107C379.466 235.118 379.503 235.124 379.545 235.145C380.6 235.619 381.608 235.512 382.552 234.857C383.131 234.451 383.594 233.933 384.016 233.368C384.192 233.127 384.358 232.88 384.529 232.624C384.545 232.592 384.582 232.571 384.604 232.529C384.636 232.466 384.694 232.456 384.757 232.489C384.82 232.521 384.835 232.568 384.813 232.637C384.743 232.826 384.678 233.031 384.608 233.22C384.326 234.003 384.124 234.813 384.132 235.651C384.144 236.69 384.584 237.511 385.412 238.12C385.49 238.174 385.579 238.206 385.663 238.249C385.747 238.292 385.831 238.361 385.793 238.487C385.75 238.571 385.697 238.624 385.602 238.575C384.295 237.946 383.138 238.242 382.086 239.16C381.533 239.645 381.09 240.226 380.684 240.839C380.619 240.939 380.545 241.033 380.47 241.127C380.433 241.201 380.364 241.205 380.301 241.173C380.238 241.141 380.223 241.093 380.244 241.025C380.336 240.767 380.428 240.51 380.51 240.247C380.803 239.364 381.027 238.459 380.878 237.509C380.733 236.601 380.244 235.927 379.468 235.45L379.473 235.466Z" fill="white"/>
<path d="M372.412 237.283C372.412 237.283 372.339 237.246 372.307 237.23C372.276 237.214 372.245 237.171 372.272 237.119C372.293 237.077 372.33 237.056 372.383 237.056C372.404 237.067 372.43 237.067 372.462 237.084C373.118 237.38 373.735 237.311 374.324 236.911C374.69 236.661 374.973 236.342 375.234 235.986C375.352 235.834 375.443 235.682 375.55 235.525C375.56 235.504 375.582 235.488 375.592 235.467C375.614 235.425 375.656 235.421 375.688 235.437C375.719 235.453 375.74 235.49 375.724 235.521C375.675 235.642 375.643 235.758 375.604 235.884C375.437 236.368 375.3 236.867 375.311 237.389C375.31 238.038 375.596 238.541 376.104 238.92C376.156 238.947 376.209 238.974 376.261 239.001C376.314 239.028 376.371 239.07 376.334 239.144C376.307 239.196 376.275 239.233 376.212 239.201C375.404 238.814 374.69 238.991 374.036 239.571C373.696 239.873 373.419 240.235 373.173 240.612C373.14 240.675 373.087 240.727 373.044 240.785C373.023 240.827 372.981 240.832 372.939 240.81C372.907 240.794 372.887 240.757 372.908 240.715C372.962 240.557 373.022 240.389 373.076 240.231C373.255 239.674 373.392 239.122 373.308 238.536C373.223 237.976 372.911 237.552 372.439 237.257L372.412 237.283Z" fill="white"/>
</g>
<g filter="url(#filter2_d_84_86)">
<path d="M103.991 82.2451C120.835 70.5116 124.979 47.3445 113.245 30.4999C101.512 13.6552 78.3445 9.51185 61.4999 21.2454C44.6553 32.9788 40.5119 56.146 52.2454 72.9906C63.9789 89.8352 87.146 93.9786 103.991 82.2451Z" fill="#FF9933"/>
<path d="M85.7497 63.3707C85.7697 62.8707 85.7297 62.4407 85.7197 62.0007C85.6697 60.2807 85.7197 58.5607 85.7997 56.8407C85.9697 52.9007 87.0197 49.1707 88.4297 45.5307C88.7797 44.6307 88.6297 43.8107 88.4197 42.9607C88.1797 42.0007 87.9497 41.0407 87.9297 40.0507C87.8797 38.1007 88.5497 36.3707 89.6297 34.7707C90.3197 33.7507 91.1897 32.9007 92.1997 32.2207C94.0897 30.9407 96.0997 29.8807 98.2697 29.1307C98.4997 29.0507 98.7297 28.9907 98.9697 28.9407C99.2697 28.8707 99.4597 28.9807 99.5297 29.2907C99.6597 29.8107 99.6697 30.3507 99.6397 30.8807C99.4997 33.0607 98.9697 35.1607 98.1297 37.1707C97.7797 38.0007 97.3897 38.8107 96.9297 39.6507C97.6797 39.3607 98.4197 39.1707 99.1597 39.0007C100.16 38.7707 101.16 38.6507 102.18 38.6207C103.36 38.5907 104.53 38.6107 105.71 38.6207C105.88 38.6207 106.06 38.6607 106.23 38.6707C106.58 38.7007 106.7 38.9307 106.49 39.2107C106.24 39.5407 105.97 39.8607 105.69 40.1707C104.47 41.5307 103.34 42.9707 102.18 44.3807C100.91 45.9107 99.4197 47.1407 97.4897 47.7407C96.4597 48.0607 95.3997 48.2207 94.3297 48.3107C93.7797 48.3607 93.2297 48.3307 92.6697 48.3107C91.5997 48.2907 90.6397 48.5607 89.8597 49.3807C88.8597 50.4407 87.8797 51.5107 87.0897 52.7507C86.7097 53.3507 86.5397 54.0007 86.4597 54.6907C86.1797 57.1307 86.1597 59.5707 86.1697 62.0207C86.1697 62.5707 86.1697 63.1207 86.2197 63.6807C86.4997 63.1707 86.7497 62.6607 87.0497 62.1707C87.7197 61.1107 88.4797 60.1107 89.3997 59.2507C89.7497 58.9207 89.9597 58.5507 90.0897 58.1007C90.3697 57.0907 90.6297 56.0607 91.0797 55.1007C91.9397 53.2807 93.1397 51.7707 94.9997 50.8807C96.0597 50.3707 97.1897 50.1107 98.3397 49.9307C99.6497 49.7307 100.98 49.5907 102.31 49.6307C102.58 49.6307 102.85 49.6707 103.12 49.6907C103.3 49.7007 103.48 49.7207 103.58 49.8907C103.69 50.0807 103.58 50.2407 103.47 50.3707C102.96 51.0207 102.45 51.6707 101.93 52.3107C101.08 53.3407 100.26 54.4107 99.3597 55.4007C98.0897 56.8007 96.6497 57.9307 94.8297 58.5007C93.7397 58.8407 92.6097 59.0307 91.4497 58.9107C91.2097 58.8807 90.9597 58.9007 90.7197 58.9107C90.4897 58.9107 90.2797 58.9907 90.1097 59.1507C88.4997 60.7107 87.1197 62.4307 86.3697 64.5907C86.2597 64.9107 86.2497 65.2407 86.3297 65.5607C86.7097 67.0807 87.0397 68.6107 87.1997 70.1807C87.2697 70.8707 87.3597 71.5507 87.3297 72.2407C87.3297 72.3407 87.3297 72.4307 87.2997 72.5307C87.2697 72.6507 87.1997 72.7407 87.0597 72.7307C86.9197 72.7307 86.8797 72.6407 86.8697 72.5207C86.8197 72.0607 86.7497 71.6007 86.7097 71.1307C86.5397 69.0207 86.0997 66.9607 85.5397 64.9207C85.0297 63.0707 84.4797 61.2407 83.8997 59.4207C83.8197 59.1807 83.6997 59.0407 83.4497 58.9507C82.8797 58.7507 82.2897 58.6507 81.6797 58.6707C81.4197 58.6707 81.2497 58.8307 81.0997 59.0107C80.8097 59.3407 80.5797 59.7107 80.3797 60.1007C79.0997 62.5607 76.9997 63.9607 74.4197 64.7407C73.2197 65.1107 71.9797 65.3607 70.8097 65.8107C69.5297 66.3007 68.3397 66.9807 67.1497 67.6407C66.8497 67.8007 66.5597 67.9607 66.2197 68.0307C65.8097 68.1107 65.5197 67.9007 65.4697 67.4807C65.4297 67.1107 65.4897 66.7507 65.6197 66.4007C66.1397 64.9807 66.9397 63.7107 67.7997 62.4707C69.0297 60.7107 70.4197 59.0907 72.2297 57.8907C72.9197 57.4307 73.6497 57.0507 74.4197 56.7607C75.8597 56.2307 77.2697 56.3207 78.6697 56.9007C79.0497 57.0607 79.4397 57.2107 79.8097 57.4107C80.6797 57.8707 81.5797 58.2407 82.5897 58.2707C82.9097 58.2707 83.2097 58.4107 83.5297 58.5107C83.5497 58.3007 83.4597 58.1507 83.3297 58.0107C82.5597 57.1307 81.5897 56.5307 80.5997 55.9407C79.7897 55.4607 78.9397 55.0507 78.0897 54.6407C77.6397 54.4307 77.1997 54.5607 76.7797 54.7307C76.0997 55.0207 75.4997 55.4607 74.9097 55.8907C73.5397 56.8807 71.9997 57.2907 70.3297 57.1307C69.3597 57.0407 68.3997 56.8107 67.4397 56.6507C66.2297 56.4407 65.0097 56.2807 63.7797 56.2007C62.5997 56.1307 61.4097 56.0907 60.2297 56.0807C59.9497 56.0807 59.6697 56.0207 59.3997 55.9607C59.0197 55.8807 58.8497 55.5607 58.9597 55.1807C59.0997 54.7407 59.3797 54.4007 59.6697 54.0507C61.7397 51.5907 64.2897 49.8907 67.4397 49.1707C70.0597 48.5707 72.3997 49.1207 74.3797 51.0107C74.8997 51.5107 75.3997 52.0207 75.9297 52.5107C76.7397 53.2707 77.6297 53.9107 78.6297 54.4007C80.1797 55.1507 81.7197 55.9407 83.0997 57.1007C82.7697 56.2107 82.4597 55.3807 82.1497 54.5407C81.4397 52.6107 80.6797 50.6907 79.8897 48.7907C79.8197 48.6207 79.7197 48.5107 79.5497 48.4307C78.7897 48.0907 77.9997 47.8207 77.2197 47.5507C74.9697 46.7807 73.3597 45.2607 72.2297 43.2007C71.3597 41.6307 70.8597 39.9407 70.5397 38.1907C70.1097 35.7907 69.7297 33.3907 69.1697 31.0207C69.1397 30.9007 69.1397 30.7707 69.1197 30.6507C69.0497 30.1907 69.3197 29.9607 69.7597 30.1007C69.9297 30.1607 70.0997 30.2407 70.2597 30.3307C71.8797 31.2307 73.3297 32.3607 74.7397 33.5607C75.5597 34.2507 76.3097 35.0107 77.0697 35.7707C78.1997 36.9107 78.9897 38.2307 79.5297 39.7407C80.1797 41.5507 80.4297 43.4007 80.3297 45.3107C80.2997 45.8507 80.2297 46.3907 80.1997 46.9307C80.1597 47.6207 80.2197 48.2907 80.4997 48.9507C82.4597 53.6007 84.2697 58.3007 85.6497 63.1507C85.6697 63.2107 85.6997 63.2707 85.7497 63.3907V63.3707ZM89.3397 44.3707C90.0097 44.0507 90.6797 43.9307 91.3097 43.7107C91.7997 43.5407 92.2797 43.3507 92.5997 42.9107C93.5097 41.6307 94.6797 40.6707 96.0997 40.0107C96.2497 39.9407 96.3497 39.8507 96.4297 39.7107C97.0597 38.6707 97.5297 37.5507 97.9497 36.4207C98.6097 34.6207 99.0297 32.7707 99.1697 30.8507C99.2097 30.3407 99.2397 29.8307 99.1097 29.3307C98.9397 29.2807 98.7997 29.3607 98.6697 29.4007C96.4997 30.1007 94.4797 31.1207 92.6097 32.4307C90.9697 33.5907 89.6797 35.0607 88.9497 36.9607C88.4697 38.2207 88.2297 39.5007 88.4297 40.8607C88.5797 41.8507 88.8597 42.8107 89.0597 43.8507C89.2397 43.4207 89.3897 43.0507 89.5497 42.6807C90.5497 40.4107 91.6797 38.2207 93.2197 36.2607C93.3097 36.1507 93.3997 36.0307 93.5097 35.9307C93.5697 35.8707 93.6497 35.8507 93.7297 35.9107C93.8097 35.9707 93.7797 36.0507 93.7497 36.1207C93.7297 36.1707 93.6897 36.2207 93.6497 36.2707C92.3097 37.9507 91.3097 39.8307 90.4097 41.7607C90.0197 42.5907 89.6997 43.4507 89.3397 44.3807V44.3707ZM79.7297 47.0407C79.7997 46.3207 79.8897 45.6207 79.9197 44.9107C79.9997 43.2707 79.7497 41.6707 79.2097 40.1107C78.7897 38.9207 78.2897 37.7707 77.4497 36.8207C75.2697 34.3907 72.7897 32.3107 69.9597 30.6707C69.8197 30.5907 69.6897 30.4907 69.4897 30.4907C69.5197 30.6807 69.5397 30.8707 69.5897 31.0407C70.0997 33.1607 70.4697 35.3207 70.8497 37.4707C71.0997 38.9007 71.4297 40.3107 72.0097 41.6507C72.7197 43.2907 73.6797 44.7307 75.1097 45.8407C76.3997 46.8507 77.9997 47.1607 79.4897 47.8207C79.4397 47.6907 79.4097 47.6207 79.3797 47.5407C78.0597 44.2507 76.4197 41.1207 74.4497 38.1707C74.1097 37.6507 73.7597 37.1407 73.4297 36.6107C73.3797 36.5407 73.2997 36.4407 73.4197 36.3507C73.5197 36.2707 73.6097 36.3507 73.6697 36.4207C73.7597 36.5107 73.8297 36.6107 73.8997 36.7207C76.0797 39.9207 78.1197 43.2107 79.6097 46.8007C79.6397 46.8707 79.6497 46.9707 79.7397 47.0207L79.7297 47.0407ZM75.7097 53.1607C75.2597 52.6607 74.7197 52.0507 74.1497 51.4707C73.4497 50.7507 72.6297 50.2007 71.6997 49.8407C70.2097 49.2607 68.6997 49.3507 67.1897 49.7607C64.2397 50.5607 61.8297 52.1907 59.8597 54.5107C59.6797 54.7207 59.5197 54.9307 59.4097 55.1807C59.3097 55.3907 59.3197 55.5207 59.5897 55.5707C59.9397 55.6307 60.2797 55.6407 60.6297 55.6307C61.9297 55.5807 63.2297 55.6707 64.5297 55.7507C66.2697 55.8607 67.9797 56.2307 69.6997 56.5207C70.6897 56.6907 71.6897 56.7007 72.6697 56.4307C73.5897 56.1807 74.3797 55.6707 75.1597 55.1307C75.7597 54.7207 76.3897 54.3607 77.1697 54.1707C76.6997 53.9907 76.2897 53.8207 75.8797 53.6607C74.3997 53.1107 72.8897 52.6707 71.3197 52.4507C70.2497 52.3007 69.1797 52.2307 68.1097 52.1707C67.9697 52.1707 67.7697 52.1707 67.7797 51.9707C67.7797 51.7907 67.9797 51.8207 68.1097 51.8207C68.7397 51.8507 69.3697 51.8907 69.9997 51.9307C71.3497 52.0107 72.6697 52.2507 73.9597 52.6207C74.6097 52.8007 75.2497 53.0207 75.7197 53.1607H75.7097ZM106.1 39.0107C105.85 38.9707 105.65 38.9207 105.43 38.9307C104.56 38.9407 103.68 38.9607 102.81 38.9707C101.36 38.9907 99.9397 39.2007 98.5397 39.5707C95.1497 40.4807 92.7097 42.4307 91.6897 45.9007C91.5197 46.4607 91.3597 47.0207 91.1897 47.5907C91.2397 47.5707 91.2597 47.5707 91.2697 47.5607C93.0397 46.1507 94.9697 44.9707 96.9397 43.8507C97.0597 43.7807 97.1797 43.7307 97.3097 43.6807C97.3997 43.6507 97.4797 43.6807 97.5297 43.7707C97.5697 43.8507 97.5397 43.9307 97.4697 43.9807C97.3497 44.0707 97.2297 44.1507 97.1097 44.2207C95.4997 45.1507 93.9197 46.1007 92.4197 47.2107C92.1297 47.4207 91.8497 47.6507 91.5597 47.8607C91.9297 47.8607 92.2597 47.8107 92.5997 47.8307C94.1697 47.9407 95.6997 47.7007 97.1997 47.2807C99.0797 46.7507 100.56 45.5907 101.79 44.0907C102.86 42.7907 103.95 41.4907 105.04 40.2007C105.38 39.8007 105.73 39.4207 106.11 39.0107H106.1ZM80.5297 58.2307C79.7797 57.8607 79.0997 57.5207 78.3997 57.2507C77.4297 56.8907 76.4397 56.7107 75.4097 56.9507C74.5897 57.1407 73.8297 57.4807 73.1097 57.9007C71.6897 58.7407 70.4997 59.8407 69.4397 61.1007C68.0897 62.7107 66.8897 64.4207 66.0797 66.3807C65.9697 66.6607 65.8597 66.9407 65.8697 67.2507C65.8697 67.5707 65.9597 67.6307 66.2597 67.5307C66.6297 67.4007 66.9597 67.2007 67.2997 67.0107C68.8197 66.1707 70.3397 65.3507 72.0397 64.9007C73.1597 64.6007 74.2897 64.3407 75.3697 63.8907C76.8097 63.3007 78.0997 62.5107 79.0397 61.2207C79.6297 60.4107 80.0497 59.5007 80.6997 58.7207C80.6597 58.7107 80.6397 58.7007 80.6297 58.7007C79.0097 58.9107 77.4497 59.3307 75.9597 60.0107C74.4397 60.7007 72.9297 61.4007 71.4797 62.2207C71.3797 62.2807 71.2597 62.3707 71.1797 62.2207C71.0997 62.0907 71.2097 62.0107 71.3097 61.9407C71.3697 61.9007 71.4397 61.8507 71.5097 61.8207C72.1797 61.4607 72.8397 61.1007 73.5097 60.7507C75.2397 59.8707 76.9597 59.0007 78.8697 58.5407C79.4097 58.4107 79.9497 58.3207 80.5597 58.2107L80.5297 58.2307ZM103.21 50.0307C103.05 50.0007 102.94 49.9807 102.82 49.9707C102.7 49.9607 102.59 49.9507 102.47 49.9507C100.78 49.9507 99.1097 50.1507 97.4497 50.4907C95.4997 50.8807 93.8297 51.7607 92.5997 53.3907C91.5397 54.8007 90.9797 56.4107 90.5197 58.1607C90.8897 57.8507 91.2097 57.5807 91.5297 57.3107C93.3497 55.8107 95.3497 54.5807 97.3397 53.3407C97.3997 53.3007 97.4597 53.2707 97.5197 53.2407C97.6197 53.2007 97.7197 53.1907 97.7797 53.2907C97.8397 53.3907 97.7797 53.4807 97.6997 53.5407C97.5197 53.6707 97.3297 53.7907 97.1397 53.9107C95.4097 55.0107 93.6697 56.0907 92.0797 57.4007C91.6797 57.7307 91.2697 58.0407 90.8797 58.4407C92.1797 58.5407 93.4197 58.4607 94.6197 58.0807C96.2697 57.5507 97.6197 56.5707 98.7897 55.3107C99.7897 54.2407 100.66 53.0807 101.6 51.9607C102.13 51.3307 102.65 50.6907 103.2 50.0307H103.21ZM86.9197 52.2707C86.9197 52.2707 86.9797 52.2007 86.9997 52.1607C87.7797 50.9207 88.7397 49.8207 89.8197 48.8407C90.3397 48.3707 90.6697 47.8207 90.8497 47.1707C91.1397 46.1207 91.4097 45.0607 91.8897 44.0707C91.8897 44.0607 91.8797 44.0407 91.8597 44.0007C91.3197 44.2307 90.7597 44.3907 90.1897 44.5507C89.8997 44.6307 89.6197 44.7207 89.3497 44.8707C89.1897 44.9607 89.0697 45.0607 89.0097 45.2407C88.1797 47.5407 87.3597 49.8407 86.9197 52.2707Z" fill="white"/>
<path opacity="0.51" d="M77.6895 73.9607C77.8395 71.8307 77.8295 69.7307 77.8395 67.6607C77.9295 67.5607 78.0195 67.5907 78.1095 67.5907C80.6795 67.5507 83.2395 67.7607 85.7995 67.9107C87.0995 67.9807 88.3995 68.0207 89.6995 68.0507C91.7395 68.1007 93.7795 68.1507 95.8195 68.1307C95.9095 68.1307 95.9995 68.1307 96.0695 68.1307C96.1695 68.2207 96.1295 68.3107 96.1395 68.4007C96.1995 70.3707 96.0295 72.3207 95.9395 74.2807C95.9295 74.5107 95.8395 74.5907 95.6095 74.5907C94.1395 74.6107 92.6695 74.5307 91.1995 74.4907C89.5795 74.4507 87.9495 74.3807 86.3295 74.3107C83.5195 74.2007 80.7095 74.0907 77.8995 73.9807C77.8495 73.9807 77.7895 73.9707 77.6895 73.9607Z" fill="white"/>
</g>
<g filter="url(#filter3_d_84_86)">
<path d="M88.3369 344.832C87.0044 324.347 69.3177 308.821 48.8326 310.153C28.3474 311.486 12.8212 329.173 14.1537 349.658C15.4862 370.143 33.1729 385.669 53.658 384.337C74.1431 383.004 89.6694 365.317 88.3369 344.832Z" fill="#FF729F"/>
<path d="M50.7892 353.358C50.3787 353.535 50.0139 353.733 49.6235 353.864C48.2478 354.306 46.8379 354.336 45.4167 354.183C45.1116 354.151 44.8027 354.058 44.5237 353.917C44.1413 353.729 43.8719 353.453 43.8917 353.007C43.9092 352.551 44.2073 352.287 44.5961 352.104C45.403 351.732 46.2508 351.803 47.0956 351.905C48.1533 352.039 49.1767 352.336 50.1956 352.613C50.3043 352.639 50.4003 352.699 50.527 352.669C50.418 352.377 50.309 352.084 50.2098 351.788C50.1361 351.559 50.0288 351.45 49.7568 351.473C48.0569 351.579 46.4555 351.18 44.9101 350.492C43.8003 350 42.7331 349.426 41.8081 348.624C41.6528 348.485 41.4953 348.337 41.3722 348.16C41.1545 347.841 40.9885 347.479 41.1867 347.095C41.4022 346.696 41.7979 346.676 42.1832 346.7C43.0265 346.75 43.7973 347.064 44.5382 347.426C46.2367 348.244 47.9076 349.119 49.431 350.244C49.467 350.267 49.503 350.289 49.6185 350.345C49.3998 349.8 49.2307 349.336 49.0346 348.889C48.2841 347.112 47.4676 345.362 46.541 343.667C46.4351 343.476 46.3151 343.401 46.1142 343.376C44.3616 343.166 42.6553 342.802 41.0251 342.102C40.0908 341.703 39.2687 341.124 38.5612 340.374C38.2348 340.029 37.9406 339.645 38.1844 339.147C38.4238 338.63 38.926 338.627 39.4034 338.649C40.2542 338.688 41.0078 339.017 41.7457 339.41C43.0559 340.102 44.2762 340.938 45.4292 341.882C45.4652 341.905 45.5012 341.927 45.5836 341.928C45.284 341.433 44.9725 340.931 44.6729 340.435C43.7577 338.923 42.7564 337.482 41.7259 336.048C41.5127 335.748 41.2652 335.61 40.9122 335.549C39.7412 335.368 38.5584 335.314 37.389 335.185C36.0524 335.043 34.727 334.816 33.5025 334.228C33.2715 334.117 33.0532 333.973 32.8597 333.802C32.4756 333.429 32.5321 332.964 33.0025 332.691C33.4385 332.446 33.9174 332.386 34.4023 332.397C35.9517 332.438 37.3942 332.905 38.7905 333.525C39.2479 333.727 39.7001 333.951 40.2055 334.183C40.041 333.872 39.8092 333.669 39.5946 333.452C38.3162 332.188 37.1336 330.85 36.133 329.368C35.5865 328.561 35.1644 327.714 35.0113 326.744C34.9457 326.328 34.9453 325.927 35.2875 325.633C35.635 325.316 36.054 325.352 36.4589 325.505C37.5334 325.933 38.2987 326.71 38.9008 327.669C39.316 328.353 39.6015 329.098 39.8092 329.861C40.2003 331.238 40.5645 332.632 40.8971 334.022C41.0214 334.558 41.3178 334.951 41.7221 335.279C41.8489 335.383 41.927 335.498 42.0118 335.643C42.5742 336.652 43.3598 337.517 43.9934 338.478C43.8645 337.79 43.7087 337.117 43.6234 336.439C43.4368 335.015 43.2577 333.578 43.4474 332.138C43.498 331.736 43.5823 331.347 43.7513 330.969C43.9705 330.497 44.2752 330.129 44.8478 330.119C45.4714 330.108 45.836 330.486 46.0869 330.992C46.4639 331.777 46.4685 332.639 46.4904 333.485C46.5414 335.034 46.1523 336.5 45.6546 337.939C45.4349 338.586 45.2369 339.237 45.0172 339.883C44.9813 339.994 44.9799 340.077 45.0414 340.165C46.2268 342.046 47.2849 343.998 48.3399 345.981C48.3044 345.65 48.2591 345.322 48.2355 344.999C48.1551 344.032 48.0942 343.061 48.3653 342.105C48.4968 341.653 48.6905 341.249 48.9614 340.868C49.3192 340.375 49.5673 340.338 50.0699 340.734C50.0374 340.506 49.9091 340.351 49.8295 340.184C49.7453 339.999 49.6537 339.825 49.5696 339.639C49.1211 338.634 48.7213 337.618 48.736 336.486C48.7432 336.207 48.7699 335.924 48.8858 335.671C49.1131 335.146 49.5642 335.011 50.0315 335.344C50.5228 335.692 50.8246 336.197 51.0605 336.727C51.6983 338.15 52.1457 339.637 52.4006 341.18C52.5265 341.9 52.6696 342.606 52.7468 343.337C52.7626 343.405 52.7514 343.49 52.8497 343.56C52.9437 343.168 53.0206 342.791 53.1169 342.41C53.4154 341.129 53.738 339.864 54.1257 338.614C54.1773 338.437 54.1576 338.309 54.0413 338.161C52.7774 336.473 51.7143 334.677 50.8669 332.748C50.5401 332.003 50.3354 331.208 50.2964 330.376C50.2902 330.172 50.3155 329.971 50.3842 329.78C50.5987 329.156 51.1323 329.022 51.6094 329.486C51.9936 329.859 52.1814 330.36 52.4038 330.832C53.0911 332.335 53.5491 333.912 53.912 335.522C54.0678 336.194 54.2237 336.866 54.4021 337.636C54.4806 337.443 54.5187 337.342 54.5546 337.231C55.4662 334.433 56.5683 331.704 57.7476 328.997C58.0505 328.311 58.4209 327.65 58.9517 327.107C59.1988 326.844 59.4923 326.56 59.88 326.727C60.2654 326.884 60.3925 327.255 60.3854 327.667C60.3803 328.531 60.0302 329.279 59.6344 330.007C59.1482 330.921 58.5516 331.757 57.9093 332.573C57.8622 332.635 57.815 332.698 57.7964 332.794C58.1986 332.537 58.6083 332.267 59.0128 332.02C59.7409 331.574 60.4923 331.184 61.3 330.904C61.6417 330.784 62.0015 330.742 62.3643 330.801C62.8336 330.877 63.0648 331.255 62.9573 331.721C62.8864 332.035 62.6978 332.284 62.4852 332.518C61.8053 333.261 60.9221 333.702 60.0133 334.077C59.1434 334.443 58.2413 334.714 57.3233 334.916C56.8752 335.02 56.4255 335.073 55.9593 335.099C55.8282 335.109 55.7045 335.107 55.6432 335.285C55.2471 336.455 54.8728 337.63 54.5187 338.892C54.9238 338.47 55.2697 338.102 55.6157 337.734C56.8331 336.477 58.2676 335.58 59.9543 335.107C60.2443 335.029 60.5486 334.969 60.8462 335.013C61.3687 335.097 61.5722 335.532 61.2976 335.986C61.0477 336.414 60.6733 336.747 60.2823 337.053C59.3971 337.751 58.3849 338.211 57.3795 338.701C56.3914 339.177 55.4152 339.659 54.5284 340.306C54.1943 340.548 53.993 340.831 53.9057 341.252C53.6028 342.646 53.2976 344.031 53.0577 345.431C53.0413 345.537 52.9739 345.645 53.0543 345.771C53.8156 344.095 55.0406 342.826 56.5214 341.774C57.0052 341.426 57.5431 341.178 58.1464 341.079C58.5526 341.016 58.9207 341.054 59.1669 341.407C59.4273 341.778 59.259 342.115 59.0232 342.426C58.4745 343.159 57.7923 343.759 57.065 344.297C56.2397 344.899 55.388 345.476 54.5506 346.07C53.8998 346.539 53.3442 347.11 52.8651 347.744C52.7386 347.907 52.6676 348.088 52.6445 348.298C52.3973 350.686 52.3345 353.072 52.5288 355.46C52.5485 355.722 52.59 355.989 52.6195 356.249C52.7019 356.251 52.7124 356.207 52.7228 356.164C53.1031 354.926 53.5966 353.734 54.2394 352.61C54.5693 352.04 54.3912 351.538 54.216 351.003C53.9303 350.125 53.7443 349.234 53.7651 348.305C53.7723 348.027 53.8208 347.749 53.9247 347.488C54.0256 347.26 54.1791 347.08 54.4414 347.061C54.7038 347.041 54.8853 347.204 54.998 347.424C55.3156 347.997 55.317 348.623 55.3281 349.247C55.3307 349.657 55.2922 350.066 55.2798 350.5C55.4227 350.231 55.5581 349.974 55.701 349.704C56.3609 348.433 56.9944 347.136 57.7622 345.931C58.2659 345.137 58.8438 344.398 59.6152 343.829C59.9321 343.601 60.279 343.459 60.6559 343.403C61.1498 343.319 61.4791 343.633 61.4219 344.139C61.3625 344.635 61.0698 345.011 60.7485 345.352C59.7625 346.412 58.6241 347.302 57.5097 348.207C57.0521 348.58 56.578 348.926 56.4137 349.591C57.0542 349.165 57.6744 348.785 58.3397 348.467C59.3061 347.986 60.3236 347.637 61.3915 347.461C61.7467 347.4 62.1035 347.389 62.4536 347.482C63.0234 347.637 63.2113 348.138 62.8947 348.632C62.6156 349.066 62.1653 349.294 61.7203 349.5C60.5688 350.023 59.3556 350.325 58.1131 350.5C57.3786 350.609 56.654 350.715 55.9324 350.924C55.73 350.981 55.5322 351.058 55.4268 351.267C54.4916 353.034 53.5782 354.806 52.9632 356.714C52.8631 357.035 52.8169 357.323 52.9395 357.674C54.107 361.16 55.1403 364.688 56.0493 368.255C56.2517 369.04 56.4908 369.805 56.7127 370.585C56.7376 370.693 56.7624 370.8 56.7895 370.917C56.8369 371.121 56.8477 371.345 56.5989 371.423C56.3404 371.503 56.2397 371.29 56.1579 371.114C55.9039 370.506 55.6867 369.879 55.5181 369.24C54.82 366.672 54.1436 364.108 53.4358 361.542C52.8558 359.438 52.2076 357.351 51.4545 355.298C51.223 354.654 51.0133 354.014 50.787 353.348L50.7892 353.358ZM51.8894 354.694C51.902 354.527 51.9184 354.421 51.9078 354.331C51.8461 353.4 51.8377 352.479 51.8585 351.55C51.9081 349.372 52.166 347.208 52.5716 345.061C52.6059 344.899 52.6522 344.745 52.5044 344.594C52.1683 344.251 51.9183 343.837 51.6683 343.423C51.2246 342.705 50.8004 341.982 50.3499 341.234C50.6258 342.823 50.6004 343.599 50.254 344.983C50.0196 345.92 49.6719 346.811 49.3483 347.718C49.2616 347.964 49.2678 348.168 49.3707 348.39C50.2864 350.436 51.1167 352.512 51.8917 354.704L51.8894 354.694ZM40.2526 333.279C40.2029 333.065 40.1704 332.836 40.1013 332.626C39.7667 331.626 39.5978 330.587 39.273 329.585C38.8881 328.411 38.3189 327.373 37.3647 326.578C36.9964 326.273 36.6011 325.985 36.1153 325.882C35.6489 325.775 35.3606 326.036 35.4496 326.509C35.5265 326.973 35.6424 327.429 35.8631 327.85C36.9648 329.945 38.6738 331.561 40.2548 333.289L40.2526 333.279ZM44.7182 339.214C44.7182 339.214 44.7766 339.2 44.8059 339.193C45.104 338.221 45.4358 337.261 45.6904 336.278C46.0854 334.75 46.1386 333.208 45.772 331.671C45.6997 331.359 45.5713 331.071 45.3447 330.846C45.0131 330.523 44.6436 330.567 44.3824 330.946C44.2454 331.152 44.1662 331.386 44.099 331.628C43.8959 332.434 43.8938 333.266 43.9208 334.091C43.9671 335.354 44.1759 336.609 44.3923 337.852C44.4692 338.317 44.5656 338.777 44.7377 339.209L44.7182 339.214ZM49.6334 351.029C49.556 350.872 49.4526 350.824 49.3663 350.762C48.0604 349.823 46.6371 349.085 45.2063 348.36C44.3236 347.918 43.4582 347.461 42.4769 347.258C42.2714 347.213 42.066 347.168 41.8494 347.208C41.6546 347.253 41.5827 347.342 41.6279 347.537C41.7092 347.887 41.9673 348.115 42.2306 348.321C44.0113 349.715 46.0142 350.605 48.2497 350.949C48.6972 351.02 49.15 351.069 49.6409 351.017L49.6334 351.029ZM45.7561 342.761C45.7013 342.702 45.6563 342.64 45.594 342.593C44.1619 341.375 42.6004 340.351 40.8817 339.58C40.3088 339.322 39.7075 339.164 39.0644 339.18C38.8898 339.179 38.7242 339.217 38.6314 339.393C38.5461 339.556 38.6385 339.689 38.7308 339.822C38.9319 340.114 39.19 340.341 39.4556 340.557C41.2784 342.044 43.5213 342.376 45.7561 342.761ZM52.2566 343.348C52.2566 343.348 52.3151 343.335 52.3443 343.328C52.2901 343.094 52.2141 342.855 52.1794 342.617C51.9385 340.825 51.5223 339.073 50.8161 337.4C50.5666 336.811 50.2902 336.238 49.8079 335.796C49.5355 335.551 49.3527 335.604 49.2519 335.966C49.1533 336.338 49.1687 336.714 49.2253 337.091C49.3806 338.071 49.7556 338.98 50.2062 339.861C50.8235 341.063 51.5217 342.215 52.2469 343.35L52.2566 343.348ZM53.3188 346.469C53.849 345.966 54.3575 345.592 54.8781 345.225C55.9657 344.469 57.0772 343.729 58.0462 342.817C58.3001 342.584 58.5517 342.34 58.729 342.043C58.8914 341.769 58.7998 341.595 58.4752 341.568C58.1289 341.535 57.8135 341.68 57.5175 341.821C56.2402 342.466 55.2361 343.448 54.3415 344.548C53.9028 345.091 53.5504 345.697 53.3165 346.459L53.3188 346.469ZM40.3562 335.01L40.3816 334.943C40.2399 334.863 40.1079 334.78 39.9587 334.712C39.3498 334.433 38.7484 334.141 38.1147 333.887C36.8258 333.375 35.5114 332.931 34.0918 332.962C33.7351 332.973 33.3566 332.978 33.0818 333.299C33.2447 333.559 33.4704 333.691 33.7134 333.809C34.1799 334.05 34.6867 334.2 35.201 334.337C36.546 334.692 37.9372 334.76 39.3105 334.883C39.6568 334.916 40.0076 334.968 40.366 335.008L40.3562 335.01ZM56.3201 334.574C56.5472 334.624 56.7128 334.585 56.8784 334.547C57.5701 334.387 58.2385 334.17 58.9023 333.934C59.9273 333.573 60.9125 333.129 61.7708 332.448C62.0412 332.242 62.2853 332.01 62.4409 331.707C62.5913 331.426 62.5064 331.282 62.2013 331.25C61.9277 331.221 61.6624 331.272 61.4084 331.372C59.5301 332.126 57.9235 333.299 56.3201 334.574ZM53.6876 336.724C53.755 336.616 53.6979 336.547 53.6724 336.481C53.376 335.379 53.138 334.264 52.7539 333.183C52.3909 332.148 52.0106 331.128 51.4887 330.161C51.3806 329.96 51.2507 329.754 50.992 329.701C50.8175 329.834 50.79 330.025 50.7819 330.212C50.7599 330.648 50.7985 331.08 50.9271 331.502C51.2302 332.5 51.6628 333.436 52.1907 334.34C52.6644 335.144 53.1457 335.936 53.6853 336.714L53.6876 336.724ZM56.3852 333.748C57.5996 332.388 58.6557 330.922 59.4313 329.264C59.6879 328.732 59.9085 328.178 59.9116 327.572C59.9099 327.387 59.879 327.21 59.72 327.144C59.5708 327.076 59.4518 327.227 59.353 327.332C58.879 327.811 58.5707 328.386 58.267 328.98C57.4815 330.506 57.0477 332.178 56.3852 333.748ZM56.3403 350.336C57.2605 350.144 58.1793 350.033 59.0898 349.843C60.0198 349.648 60.934 349.384 61.7902 348.96C62.0667 348.824 62.3506 348.676 62.549 348.425C62.7301 348.188 62.6775 348.005 62.3828 347.93C62.1099 347.859 61.8334 347.862 61.5583 347.915C60.5609 348.085 59.6116 348.418 58.7088 348.863C57.8698 349.274 57.0495 349.72 56.3425 350.346L56.3403 350.336ZM50.1047 353.106C48.8496 352.74 47.659 352.431 46.4282 352.347C45.7933 352.309 45.1645 352.342 44.6057 352.677C44.2551 352.892 44.2734 353.236 44.6289 353.441C45.0084 353.661 45.4245 353.729 45.8532 353.763C46.6815 353.838 47.5075 353.77 48.3221 353.653C48.9179 353.566 49.5099 353.419 50.1024 353.096L50.1047 353.106ZM60.9427 335.607C60.7237 335.503 60.5319 335.517 60.325 335.555C59.8237 335.65 59.3667 335.849 58.9119 336.057C57.3281 336.752 56.0858 337.903 54.9313 339.166C54.783 339.324 54.6513 339.508 54.515 339.673C55.649 338.897 56.898 338.351 58.1041 337.753C58.8773 337.368 59.6361 336.967 60.2839 336.396C60.5303 336.174 60.7887 335.96 60.933 335.609L60.9427 335.607ZM49.0794 347.133C49.4329 346.179 49.7169 345.323 49.8682 344.425C50.0276 343.475 50.1556 342.521 49.8638 341.573C49.7924 341.353 49.721 341.133 49.5005 340.979C49.1344 341.393 48.9272 341.872 48.8116 342.391C48.6489 343.107 48.6728 343.83 48.7185 344.558C48.7673 345.389 48.8476 346.222 49.0771 347.124L49.0794 347.133ZM57.3279 347.777C57.626 347.647 57.8244 347.395 58.0438 347.19C58.7807 346.517 59.5506 345.897 60.2327 345.164C60.4873 344.889 60.7201 344.609 60.8666 344.267C60.9197 344.142 60.9901 344.003 60.8828 343.894C60.7897 343.803 60.6533 343.834 60.529 343.874C59.9954 344.007 59.618 344.372 59.2549 344.754C58.4649 345.553 57.9675 346.551 57.3838 347.487C57.3314 347.571 57.279 347.655 57.3301 347.787L57.3279 347.777ZM54.6911 350.883C54.9473 349.951 54.9441 349.007 54.8075 348.064C54.784 347.874 54.7215 347.56 54.5056 347.559C54.2486 347.557 54.3013 347.873 54.2446 348.071C54.2184 348.18 54.2141 348.294 54.2194 348.405C54.2023 349.261 54.4819 350.069 54.6911 350.883Z" fill="white"/>
<path opacity="0.51" d="M44.969 365.845C44.6341 363.736 44.1501 361.693 43.6924 359.674C43.7574 359.556 43.8519 359.565 43.9396 359.545C46.4341 358.925 48.9754 358.552 51.5032 358.12C52.7854 357.894 54.0609 357.64 55.334 357.376C57.3326 356.964 59.3312 356.552 61.314 356.071C61.4017 356.051 61.4894 356.031 61.5576 356.015C61.6753 356.08 61.6567 356.177 61.6867 356.262C62.1901 358.168 62.4648 360.106 62.8198 362.035C62.862 362.262 62.7924 362.36 62.5683 362.412C61.1408 362.763 59.6907 363.017 58.2496 363.31C56.6625 363.637 55.0588 363.937 53.4648 364.235C50.7025 364.762 47.9403 365.29 45.1781 365.817C45.1293 365.828 45.0686 365.832 44.969 365.845Z" fill="white"/>
</g>
<path d="M331 148C336.514 148 341 152.486 341 158C341 163.514 336.514 168 331 168C325.486 168 321 163.514 321 158C321 152.486 325.486 148 331 148ZM331 146C324.373 146 319 151.373 319 158C319 164.627 324.373 170 331 170C337.627 170 343 164.627 343 158C343 151.373 337.627 146 331 146ZM337 160H325C325.33 161.465 327.826 164 331.001 164C334.135 164 336.666 161.479 337 160ZM327.5 154C326.672 154 326 154.671 326 155.5C326 156.329 326.672 157 327.5 157C328.328 157 329 156.329 329 155.5C329 154.671 328.328 154 327.5 154ZM337 156.002L336.245 156.508C336.245 156.508 335.742 155.56 334.499 155.56C333.292 155.56 332.754 156.508 332.754 156.508L332 156.002C332.281 155.254 333.205 154 334.499 154C335.794 154 336.717 155.254 337 156.002Z" fill="#FF9933"/>
<path d="M146.111 300.838C151.611 300.451 156.401 304.611 156.789 310.111C157.176 315.611 153.017 320.401 147.516 320.789C142.016 321.176 137.226 317.017 136.838 311.516C136.451 306.016 140.611 301.226 146.111 300.838ZM145.97 298.843C139.36 299.309 134.378 305.046 134.843 311.657C135.309 318.267 141.046 323.25 147.657 322.784C154.267 322.318 159.25 316.581 158.784 309.97C158.318 303.36 152.581 298.378 145.97 298.843ZM152.939 312.387L140.969 313.23C141.402 314.668 144.07 317.022 147.236 316.799C150.362 316.578 152.711 313.886 152.939 312.387ZM152.658 308.399L151.941 308.957C151.941 308.957 151.372 308.046 150.132 308.134C148.928 308.219 148.458 309.202 148.458 309.202L147.671 308.75C147.898 307.984 148.732 306.669 150.023 306.578C151.315 306.487 152.323 307.673 152.658 308.399ZM145.676 308.891L144.958 309.449C144.958 309.449 144.39 308.538 143.15 308.626C141.946 308.71 141.476 309.694 141.476 309.694L140.688 309.242C140.916 308.476 141.749 307.16 143.04 307.07C144.332 306.979 145.341 308.165 145.676 308.891Z" fill="#FF9933"/>
<path d="M304 307C309.514 307 314 311.486 314 317C314 322.514 309.514 327 304 327C298.486 327 294 322.514 294 317C294 311.486 298.486 307 304 307ZM304 305C297.373 305 292 310.373 292 317C292 323.627 297.373 329 304 329C310.627 329 316 323.627 316 317C316 310.373 310.627 305 304 305ZM309.508 318.941C307.995 320.136 306.334 320.872 304.001 320.872C301.666 320.872 300.005 320.136 298.492 318.941L298 319.434C299.127 321.154 301.2 323 304.001 323C306.801 323 308.873 321.154 310 319.434L309.508 318.941ZM310 315.002L309.245 315.508C309.245 315.508 308.742 314.56 307.499 314.56C306.292 314.56 305.754 315.508 305.754 315.508L305 315.002C305.281 314.254 306.205 313 307.499 313C308.794 313 309.717 314.254 310 315.002ZM303 315.002L302.245 315.508C302.245 315.508 301.742 314.56 300.499 314.56C299.292 314.56 298.754 315.508 298.754 315.508L298 315.002C298.281 314.254 299.205 313 300.499 313C301.794 313 302.717 314.254 303 315.002Z" fill="#FF729F"/>
<path d="M257 101C250.373 101 245 106.373 245 113C245 119.627 250.373 125 257 125C263.627 125 269 119.627 269 113C269 106.373 263.627 101 257 101ZM257 103C260.691 103 263.915 105.016 265.647 108H248.353C250.085 105.016 253.309 103 257 103ZM257 123C251.486 123 247 118.514 247 113C247 111.955 247.163 110.948 247.461 110H249.32C249.926 111.518 251.249 113 253.306 113C255.783 113 255.459 110.69 257 110.69C258.541 110.69 258.218 113 260.695 113C262.75 113 264.074 111.518 264.679 110H266.539C266.837 110.948 267 111.955 267 113C267 118.514 262.514 123 257 123ZM262.508 114.941L263 115.434C261.873 117.154 259.801 119 257.001 119C254.2 119 252.127 117.154 251 115.434L251.492 114.941C253.005 116.136 254.666 116.872 257.001 116.872C259.334 116.872 260.995 116.136 262.508 114.941Z" fill="#FF729F"/>
<defs>
<filter id="filter0_d_84_86" x="45.2559" y="51.2558" width="341.262" height="341.262" filterUnits="userSpaceOnUse" color-interpolation-filters="sRGB">
<feFlood flood-opacity="0" result="BackgroundImageFix"/>
<feColorMatrix in="SourceAlpha" type="matrix" values="0 0 0 0 0 0 0 0 0 0 0 0 0 0 0 0 0 0 127 0" result="hardAlpha"/>
<feOffset dy="4"/>
<feGaussianBlur stdDeviation="2"/>
<feComposite in2="hardAlpha" operator="out"/>
<feColorMatrix type="matrix" values="0 0 0 0 0 0 0 0 0 0 0 0 0 0 0 0 0 0 0.25 0"/>
<feBlend mode="normal" in2="BackgroundImageFix" result="effect1_dropShadow_84_86"/>
<feBlend mode="normal" in="SourceGraphic" in2="effect1_dropShadow_84_86" result="shape"/>
</filter>
<filter id="filter1_d_84_86" x="323.925" y="174.925" width="95.6416" height="95.6416" filterUnits="userSpaceOnUse" color-interpolation-filters="sRGB">
<feFlood flood-opacity="0" result="BackgroundImageFix"/>
<feColorMatrix in="SourceAlpha" type="matrix" values="0 0 0 0 0 0 0 0 0 0 0 0 0 0 0 0 0 0 127 0" result="hardAlpha"/>
<feOffset dy="4"/>
<feGaussianBlur stdDeviation="2"/>
<feComposite in2="hardAlpha" operator="out"/>
<feColorMatrix type="matrix" values="0 0 0 0 0 0 0 0 0 0 0 0 0 0 0 0 0 0 0.25 0"/>
<feBlend mode="normal" in2="BackgroundImageFix" result="effect1_dropShadow_84_86"/>
<feBlend mode="normal" in="SourceGraphic" in2="effect1_dropShadow_84_86" result="shape"/>
</filter>
<filter id="filter2_d_84_86" x="41.5723" y="14.572" width="82.3467" height="82.3466" filterUnits="userSpaceOnUse" color-interpolation-filters="sRGB">
<feFlood flood-opacity="0" result="BackgroundImageFix"/>
<feColorMatrix in="SourceAlpha" type="matrix" values="0 0 0 0 0 0 0 0 0 0 0 0 0 0 0 0 0 0 127 0" result="hardAlpha"/>
<feOffset dy="4"/>
<feGaussianBlur stdDeviation="2"/>
<feComposite in2="hardAlpha" operator="out"/>
<feColorMatrix type="matrix" values="0 0 0 0 0 0 0 0 0 0 0 0 0 0 0 0 0 0 0.25 0"/>
<feBlend mode="normal" in2="BackgroundImageFix" result="effect1_dropShadow_84_86"/>
<feBlend mode="normal" in="SourceGraphic" in2="effect1_dropShadow_84_86" result="shape"/>
</filter>
<filter id="filter3_d_84_86" x="10.0742" y="310.074" width="82.3428" height="82.3427" filterUnits="userSpaceOnUse" color-interpolation-filters="sRGB">
<feFlood flood-opacity="0" result="BackgroundImageFix"/>
<feColorMatrix in="SourceAlpha" type="matrix" values="0 0 0 0 0 0 0 0 0 0 0 0 0 0 0 0 0 0 127 0" result="hardAlpha"/>
<feOffset dy="4"/>
<feGaussianBlur stdDeviation="2"/>
<feComposite in2="hardAlpha" operator="out"/>
<feColorMatrix type="matrix" values="0 0 0 0 0 0 0 0 0 0 0 0 0 0 0 0 0 0 0.25 0"/>
<feBlend mode="normal" in2="BackgroundImageFix" result="effect1_dropShadow_84_86"/>
<feBlend mode="normal" in="SourceGraphic" in2="effect1_dropShadow_84_86" result="shape"/>
</filter>
</defs>
</svg>
